<?xml version="1.0" encoding="UTF-8" standalone="no"?>
<!-- Created with Inkscape (http://www.inkscape.org/) -->

<svg
   xmlns:dc="http://purl.org/dc/elements/1.1/"
   xmlns:cc="http://creativecommons.org/ns#"
   xmlns:rdf="http://www.w3.org/1999/02/22-rdf-syntax-ns#"
   xmlns:svg="http://www.w3.org/2000/svg"
   xmlns="http://www.w3.org/2000/svg"
   xmlns:sodipodi="http://sodipodi.sourceforge.net/DTD/sodipodi-0.dtd"
   xmlns:inkscape="http://www.inkscape.org/namespaces/inkscape"
   width="210mm"
   height="297mm"
   viewBox="0 0 210 297"
   version="1.1"
   id="svg8"
   inkscape:version="0.92.3 (2405546, 2018-03-11)"
   sodipodi:docname="how-much-data-working.svg">
  <defs
     id="defs2" />
  <sodipodi:namedview
     id="base"
     pagecolor="#ffffff"
     bordercolor="#666666"
     borderopacity="1.0"
     inkscape:pageopacity="0.0"
     inkscape:pageshadow="2"
     inkscape:zoom="0.7"
     inkscape:cx="-327.92259"
     inkscape:cy="446.86889"
     inkscape:document-units="mm"
     inkscape:current-layer="layer1"
     showgrid="false"
     inkscape:window-width="2560"
     inkscape:window-height="1440"
     inkscape:window-x="0"
     inkscape:window-y="0"
     inkscape:window-maximized="0" />
  <metadata
     id="metadata5">
    <rdf:RDF>
      <cc:Work
         rdf:about="">
        <dc:format>image/svg+xml</dc:format>
        <dc:type
           rdf:resource="http://purl.org/dc/dcmitype/StillImage" />
        <dc:title></dc:title>
      </cc:Work>
    </rdf:RDF>
  </metadata>
  <g
     inkscape:label="Layer 1"
     inkscape:groupmode="layer"
     id="layer1">
    <path
       style="opacity:1;fill:#000000;fill-opacity:1;stroke:none;stroke-width:0.45323911;stroke-linejoin:round;stroke-miterlimit:4;stroke-dasharray:none;stroke-dashoffset:0;stroke-opacity:1"
       id="path821"
       d="m -218.62883,222.01381 c 0.0234,0.2981 0.0402,0.59664 0.0557,0.89522 0.019,0.37942 0.0331,0.75907 0.0462,1.13875 0.0166,0.49545 0.0295,0.99101 0.0417,1.48658 0.0151,0.61752 0.0266,1.23509 0.0376,1.85269 0.0136,0.75661 0.0243,1.51327 0.0341,2.26994 0.0121,0.91677 0.0216,1.83355 0.031,2.75033 0.0106,1.07524 0.0195,2.1505 0.0281,3.22575 0.009,1.19639 0.0178,2.39277 0.0255,3.58916 0.009,1.302 0.016,2.60402 0.0233,3.90603 0.008,1.3779 0.0151,2.75583 0.0212,4.13375 0.003,1.48402 0.0502,2.96755 0.0884,4.45099 0.035,1.55823 0.0813,3.11612 0.13265,4.67389 0.0509,1.60441 0.10047,3.20871 0.17494,4.81222 0.0781,1.6424 0.1565,3.28465 0.25929,4.92573 0.11211,1.67544 0.20729,3.35203 0.32638,5.02701 0.12978,1.70394 0.26128,3.40774 0.38752,5.11195 0.12358,1.73321 0.283,3.46363 0.43059,5.19492 0.14972,1.75199 0.28965,3.5048 0.42546,5.25792 0.13673,1.76601 0.26389,3.53273 0.38746,5.29969 0.12403,1.77437 0.23955,3.54932 0.35229,5.32444 0.1124,1.77558 0.21751,3.55162 0.32033,5.32777 0.0866,1.7413 0.14504,3.48385 0.2055,5.22621 0.0594,1.71519 0.11467,3.43052 0.16933,5.14588 0.0533,1.68816 0.10409,3.37639 0.15365,5.06466 0.0483,1.65595 0.0944,3.31197 0.13975,4.96801 0.0381,1.62266 0.0961,3.24471 0.15339,4.86678 0.0564,1.58437 0.11089,3.16882 0.16437,4.7533 0.052,1.54435 0.10153,3.08878 0.15002,4.63322 0.0314,1.01109 0.0157,0.50752 0.047,1.51068 0,0 -1.5172,0.77899 -1.5172,0.77899 v 0 c -0.0311,-1.00319 -0.0154,-0.49963 -0.0468,-1.51069 -0.0485,-1.54436 -0.0979,-3.0887 -0.14972,-4.63296 -0.0533,-1.58443 -0.10772,-3.16884 -0.16406,-4.75317 -0.0572,-1.62249 -0.11602,-3.24495 -0.15387,-4.86804 -0.0452,-1.65597 -0.0911,-3.31191 -0.13945,-4.96779 -0.0494,-1.68816 -0.10016,-3.3763 -0.15334,-5.06436 -0.0544,-1.71522 -0.10984,-3.43043 -0.16895,-5.14551 -0.0603,-1.7412 -0.11875,-3.48257 -0.20351,-5.2228 -0.10273,-1.77588 -0.20769,-3.55163 -0.31988,-5.32693 -0.11255,-1.7748 -0.22798,-3.54942 -0.3518,-5.32346 -0.12344,-1.76659 -0.25043,-3.53291 -0.38692,-5.29853 -0.13567,-1.75272 -0.2754,-3.50513 -0.42493,-5.25673 -0.1476,-1.73184 -0.30743,-3.46279 -0.4316,-5.19652 -0.12615,-1.70433 -0.25732,-3.40829 -0.38782,-5.11228 -0.12041,-1.67531 -0.21444,-3.3524 -0.32723,-5.02824 -0.10349,-1.64183 -0.18282,-3.28485 -0.26068,-4.92808 -0.0752,-1.60415 -0.12585,-3.20907 -0.17624,-4.81419 -0.0515,-1.5581 -0.0986,-3.11629 -0.1334,-4.67486 -0.0382,-1.48442 -0.0858,-2.96892 -0.0905,-4.45392 -0.006,-1.37781 -0.0136,-2.75562 -0.0214,-4.13343 -0.008,-1.30189 -0.0151,-2.60378 -0.0236,-3.90568 -0.008,-1.19622 -0.0163,-2.39244 -0.026,-3.58866 -0.009,-1.07501 -0.0177,-2.15002 -0.0287,-3.22501 -0.009,-0.91655 -0.0195,-1.83309 -0.0314,-2.74962 -0.0106,-0.75629 -0.0208,-1.51256 -0.0344,-2.26879 -0.0106,-0.61718 -0.023,-1.23434 -0.0378,-1.85144 -0.0121,-0.495 -0.0249,-0.98998 -0.0414,-1.48484 -0.0136,-0.3787 -0.0267,-0.75736 -0.0453,-1.13583 -0.0153,-0.2973 -0.0314,-0.59458 -0.0536,-0.89146 0,0 1.51883,-0.78864 1.51883,-0.78864 z"
       inkscape:connector-curvature="0"
       inkscape:export-xdpi="78.010002"
       inkscape:export-ydpi="78.010002" />
    <path
       style="opacity:1;fill:#000000;fill-opacity:1;stroke:none;stroke-width:0.45323911;stroke-linejoin:round;stroke-miterlimit:4;stroke-dasharray:none;stroke-dashoffset:0;stroke-opacity:1"
       id="path823"
       d="m -213.40522,338.76006 c 0.30669,-0.0426 0.61426,-0.0763 0.92089,-0.11935 0.39091,-0.0536 0.78306,-0.0971 1.17552,-0.13764 0.49642,-0.0393 0.9882,-0.11814 1.48142,-0.1848 0.59623,-0.0811 1.19416,-0.14896 1.79242,-0.21334 0.70672,-0.0766 1.41287,-0.15812 2.11997,-0.23144 0.81764,-0.10651 1.63512,-0.21417 2.45348,-0.31515 0.92757,-0.11754 1.85708,-0.22053 2.7835,-0.34691 1.02495,-0.15047 2.0537,-0.27399 3.07817,-0.42755 1.07079,-0.16971 2.14412,-0.32275 3.21563,-0.4877 1.10514,-0.17432 2.21194,-0.33779 3.31975,-0.49408 1.15713,-0.18235 2.31408,-0.36561 3.47222,-0.54162 1.19922,-0.17513 2.39829,-0.35126 3.59744,-0.52697 1.23623,-0.18197 2.47466,-0.34831 3.71356,-0.51081 1.26794,-0.16503 2.53738,-0.31807 3.80746,-0.46546 1.29536,-0.15002 2.59194,-0.28887 3.88899,-0.42334 1.32121,-0.13658 2.6435,-0.26246 3.9661,-0.38494 1.3429,-0.12449 2.68676,-0.23846 4.03079,-0.35002 1.36665,-0.11271 2.73396,-0.21701 4.1015,-0.31823 1.38996,-0.10289 2.78055,-0.19709 4.17125,-0.2894 1.40753,-0.0928 2.81546,-0.17944 4.22355,-0.26312 1.42438,-0.0847 2.84911,-0.16304 4.27396,-0.23928 1.43701,-0.0768 2.87429,-0.14806 4.31168,-0.21758 1.44745,-0.0701 2.89517,-0.13462 4.34293,-0.19784 1.45744,-0.0633 2.91507,-0.12223 4.37275,-0.17989 1.46345,-0.0576 2.92705,-0.1112 4.39068,-0.16356 1.46884,-0.0523 2.93779,-0.10107 4.4068,-0.14882 1.46624,-0.0474 2.93257,-0.092 4.39895,-0.13521 1.46081,-0.0431 2.92167,-0.0836 4.38257,-0.12298 1.44996,-0.039 2.89996,-0.076 4.34999,-0.1118 1.4371,-0.0353 2.87426,-0.069 4.31142,-0.10168 1.42544,-0.0322 2.85091,-0.0627 4.27639,-0.0925 1.41006,-0.0296 2.82014,-0.0571 4.23026,-0.084 1.387849,-0.0207 2.775335,-0.0554 4.162715,-0.0959 0.227375,-0.006 0.45475,-0.0136 0.68211,-0.0202 0,0 -1.377364,1.00696 -1.377364,1.00696 v 0 c -0.227375,0.006 -0.454765,0.0136 -0.68214,0.0201 -1.387667,0.0402 -2.775471,0.0728 -4.163561,0.0944 -1.41004,0.027 -2.82007,0.0547 -4.23005,0.0843 -1.42539,0.0299 -2.85078,0.0604 -4.27613,0.0928 -1.43708,0.0328 -2.87414,0.0665 -4.31116,0.10198 -1.44995,0.036 -2.89986,0.073 -4.34971,0.1121 -1.4608,0.0396 -2.92158,0.0802 -4.38229,0.12328 -1.46628,0.0435 -2.93251,0.0881 -4.39866,0.13567 -1.46889,0.0477 -2.93774,0.0967 -4.40648,0.14911 -1.46351,0.0526 -2.92699,0.10636 -4.39032,0.16411 -1.45754,0.0579 -2.91505,0.11693 -4.37236,0.18048 -1.44762,0.0634 -2.89519,0.12826 -4.3425,0.19852 -1.43721,0.0696 -2.87434,0.14125 -4.3112,0.21831 -1.42466,0.0764 -2.84921,0.1552 -4.27339,0.24014 -1.4079,0.084 -2.81563,0.17094 -4.22295,0.26413 -1.39048,0.0926 -2.78082,0.18725 -4.17056,0.2905 -1.36727,0.10167 -2.73431,0.20629 -4.10069,0.31953 -1.34375,0.11195 -2.68729,0.22647 -4.0299,0.3514 -1.32225,0.12297 -2.6442,0.24935 -3.96506,0.3865 -1.29666,0.13507 -2.59287,0.27447 -3.88782,0.4251 -1.26963,0.1482 -2.53864,0.30172 -3.80609,0.46759 -1.23847,0.16309 -2.47638,0.33044 -3.71215,0.51296 -1.19899,0.17619 -2.39823,0.35064 -3.59708,0.52783 -1.15835,0.17671 -2.31534,0.36212 -3.47345,0.54033 -1.10743,0.15738 -2.21377,0.32206 -3.31877,0.49575 -1.072,0.16314 -2.14499,0.31986 -3.21635,0.4871 -1.02559,0.14912 -2.05402,0.27818 -3.07982,0.42597 -0.92742,0.12253 -1.85685,0.22938 -2.78504,0.3459 -0.81891,0.10198 -1.63669,0.21269 -2.45583,0.31281 -0.70702,0.0745 -1.41317,0.15665 -2.12004,0.23239 -0.5975,0.0656 -1.19458,0.13506 -1.79007,0.21733 -0.4941,0.0677 -0.98772,0.13975 -1.48497,0.18094 -0.39153,0.042 -0.78267,0.0876 -1.17261,0.14247 -0.3063,0.0416 -0.61391,0.073 -0.91926,0.12147 0,0 1.36901,-1.02693 1.36901,-1.02693 z"
       inkscape:connector-curvature="0"
       inkscape:export-xdpi="78.010002"
       inkscape:export-ydpi="78.010002" />
    <path
       style="opacity:1;fill:#000000;fill-opacity:1;stroke:none;stroke-width:0.45323911;stroke-linejoin:round;stroke-miterlimit:4;stroke-dasharray:none;stroke-dashoffset:0;stroke-opacity:1"
       id="path825"
       d="m -226.91431,226.43998 c 0.21526,-0.19275 0.43798,-0.37687 0.6652,-0.55528 0.25315,-0.19781 0.5119,-0.38838 0.77382,-0.57441 0.88591,-0.58866 1.81602,-1.11471 2.78018,-1.5642 0.41207,-0.19408 0.84269,-0.34108 1.27835,-0.47143 0.4179,-0.12252 0.84668,-0.19631 1.27842,-0.24762 0.42213,-0.0458 0.84636,-0.0426 1.26964,-0.0193 0.42878,0.0203 0.85401,0.0851 1.27356,0.1735 0.42979,0.0876 0.85032,0.21559 1.26271,0.36394 0.43011,0.15017 0.84571,0.33839 1.25526,0.53707 0.35976,0.18322 0.71462,0.37577 1.06571,0.57503 0,0 -1.43371,0.93311 -1.43371,0.93311 v 0 c -0.34927,-0.19583 -0.70097,-0.38747 -1.05968,-0.56557 -0.4064,-0.19335 -0.81858,-0.37594 -1.24492,-0.52136 -0.40882,-0.14035 -0.82434,-0.26257 -1.24925,-0.3442 -0.41545,-0.0795 -0.8352,-0.13764 -1.25843,-0.15206 -0.41794,-0.0151 -0.83661,-0.0121 -1.25199,0.0434 -0.42631,0.0601 -0.8495,0.14095 -1.26083,0.27065 -0.43108,0.13643 -0.85546,0.29304 -1.26277,0.49062 -1.77495,0.85711 1.71376,-1.04233 0.15032,-0.12827 -0.2649,0.18042 -0.5235,0.3705 -0.77634,0.56741 -0.23145,0.1711 -0.45453,0.35401 -0.66947,0.54539 0,0 -1.58572,0.64361 -1.58572,0.64361 z"
       inkscape:connector-curvature="0"
       inkscape:export-xdpi="78.010002"
       inkscape:export-ydpi="78.010002" />
    <path
       style="opacity:1;fill:#000000;fill-opacity:1;stroke:none;stroke-width:0.45323911;stroke-linejoin:round;stroke-miterlimit:4;stroke-dasharray:none;stroke-dashoffset:0;stroke-opacity:1"
       id="path827"
       d="m -98.614589,327.52089 c 0.236847,0.17823 0.489498,0.33347 0.73538,0.49846 0.281854,0.18497 0.57507,0.35161 0.860188,0.53142 0.325652,0.19813 0.638326,0.41729 0.940939,0.64886 0.322449,0.26007 0.63035,0.53745 0.923777,0.82975 0.271218,0.26315 0.513973,0.55195 0.729609,0.8618 0.180238,0.25872 0.314533,0.54241 0.414276,0.8405 0.08989,0.26629 0.122979,0.54283 0.120108,0.82245 -0.01058,0.27214 -0.0704,0.53621 -0.158588,0.79271 -0.10349,0.2727 -0.244205,0.52732 -0.405755,0.7693 -0.120259,0.17645 -0.264994,0.33321 -0.412735,0.48655 0,0 -1.58123,0.65486 -1.58123,0.65486 v 0 c 0.150475,-0.14443 0.298352,-0.29204 0.424262,-0.45904 0.167955,-0.22778 0.312342,-0.46868 0.423371,-0.72973 0.0973,-0.2384 0.163317,-0.48442 0.183018,-0.74224 0.0136,-0.26126 -0.01058,-0.51999 -0.09231,-0.76995 -0.0905,-0.2838 -0.217751,-0.55232 -0.389196,-0.797 -0.210681,-0.30092 -0.449024,-0.58004 -0.713354,-0.83557 -0.289695,-0.28569 -0.592761,-0.55795 -0.911932,-0.81051 -0.300875,-0.22619 -0.610679,-0.4408 -0.932826,-0.63579 -0.287656,-0.17848 -0.581264,-0.34749 -0.863013,-0.53536 -0.248012,-0.16383 -0.498351,-0.32434 -0.73713,-0.50166 0,0 1.443111,-0.91981 1.443111,-0.91981 z"
       inkscape:connector-curvature="0"
       inkscape:export-xdpi="78.010002"
       inkscape:export-ydpi="78.010002" />
    <text
       xml:space="preserve"
       style="font-style:normal;font-weight:normal;font-size:38.37424469px;line-height:1.25;font-family:sans-serif;letter-spacing:0px;word-spacing:0px;fill:#000000;fill-opacity:1;stroke:none;stroke-width:0.3997317"
       x="-281.0744"
       y="269.06146"
       id="text837"
       inkscape:export-xdpi="78.010002"
       inkscape:export-ydpi="78.010002"><tspan
         sodipodi:role="line"
         id="tspan835"
         x="-281.0744"
         y="269.06146"
         style="font-size:11.72546387px;stroke-width:0.3997317">accuracy</tspan></text>
    <text
       xml:space="preserve"
       style="font-style:normal;font-weight:normal;font-size:38.37424469px;line-height:1.25;font-family:sans-serif;letter-spacing:0px;word-spacing:0px;fill:#000000;fill-opacity:1;stroke:none;stroke-width:0.3997317"
       x="-182.28357"
       y="360.42871"
       id="text841"
       inkscape:export-xdpi="78.010002"
       inkscape:export-ydpi="78.010002"><tspan
         sodipodi:role="line"
         id="tspan839"
         x="-182.28357"
         y="360.42871"
         style="font-size:11.72546387px;stroke-width:0.3997317">data size</tspan></text>
    <path
       style="opacity:1;fill:#0000ff;fill-opacity:1;stroke:none;stroke-width:0.45323911;stroke-linejoin:round;stroke-miterlimit:4;stroke-dasharray:none;stroke-dashoffset:0;stroke-opacity:1"
       id="path843"
       d="m -209.91204,328.52994 c 0.31463,0.0166 0.62912,0.0355 0.94378,0.0517 0.34372,0.0234 0.6883,0.0175 1.03253,0.0159 0.40623,-0.0174 0.81286,-0.0295 1.21846,-0.0585 0.4591,-0.0358 0.91831,-0.07 1.3777,-0.10168 0.50509,-0.0473 1.01003,-0.0961 1.51531,-0.14126 0.55487,-0.0423 1.10838,-0.0977 1.66185,-0.15521 0.59474,-0.0645 1.19116,-0.11225 1.78585,-0.17705 0.6281,-0.074 1.25779,-0.134 1.8856,-0.2103 0.64471,-0.0829 1.28984,-0.16233 1.93546,-0.23771 0.67329,-0.0798 1.34624,-0.1648 2.01734,-0.26159 0.68545,-0.0923 1.3667,-0.21062 2.0466,-0.33665 0.68891,-0.12585 1.37424,-0.2703 2.05845,-0.41935 0.70349,-0.14731 1.4053,-0.30191 2.10729,-0.45611 0.70808,-0.15763 1.40927,-0.34296 2.10906,-0.53345 0.70661,-0.19024 1.40933,-0.39468 2.11103,-0.60221 0.71085,-0.21899 1.4192,-0.44585 2.1293,-0.66718 0.72655,-0.23706 1.45525,-0.46721 2.18196,-0.70371 0.7361,-0.24249 1.47363,-0.48098 2.20845,-0.72735 0.74384,-0.2415 1.482,-0.4994 2.21859,-0.76195 0.73241,-0.26468 1.45587,-0.55262 2.17834,-0.84298 0.71842,-0.29255 1.42766,-0.6064 2.1362,-0.92189 0.71042,-0.31411 1.40472,-0.66143 2.09682,-1.01349 0.69384,-0.35772 1.37828,-0.73296 2.06282,-1.10803 1.00952,-0.57315 -0.5227,0.30748 -0.78658,0.45682 -0.1124,0.0636 0.22177,-0.13235 0.33236,-0.19894 0.33159,-0.19982 0.65963,-0.40438 0.98574,-0.61298 0.65036,-0.4145 1.28653,-0.85088 1.91366,-1.29962 0.62195,-0.45053 1.22808,-0.92158 1.81754,-1.41375 0.5886,-0.49786 1.14447,-1.03262 1.68976,-1.57705 0.55691,-0.56096 1.08809,-1.14614 1.6037,-1.74499 0.51603,-0.61197 1.00755,-1.24429 1.49404,-1.87985 0.49066,-0.64756 0.9542,-1.31512 1.40974,-1.98766 0.46537,-0.68837 0.89675,-1.3986 1.31548,-2.116 0.41953,-0.72894 0.83316,-1.46109 1.23133,-2.20192 0.40329,-0.75267 0.77563,-1.52116 1.13701,-2.29463 0.36027,-0.78911 0.70657,-1.58456 1.05191,-2.38026 0.35001,-0.80559 0.67449,-1.6218 0.98921,-2.44169 0.3249,-0.82547 0.63976,-1.6547 0.94302,-2.48835 0.30754,-0.84805 0.59125,-1.7044 0.8667,-2.56332 0.27971,-0.87539 0.53763,-1.75745 0.78817,-2.64157 0.25418,-0.90018 0.48873,-1.8057 0.7166,-2.71286 0.22221,-0.91838 0.45289,-1.8347 0.67752,-2.75249 0.23046,-0.91234 0.45856,-1.82524 0.6941,-2.73628 0.2352,-0.90501 0.47454,-1.80904 0.71815,-2.71184 0.23801,-0.89622 0.49066,-1.7883 0.75221,-2.67788 0.25706,-0.87992 0.52519,-1.75658 0.7978,-2.63178 0.274,-0.86394 0.56077,-1.72369 0.8452,-2.58421 0.28721,-0.85251 0.57553,-1.70461 0.87744,-2.55203 0.29514,-0.83727 0.61843,-1.66413 0.93629,-2.49292 0.31121,-0.8209 0.65026,-1.63047 0.99775,-2.43653 0.35336,-0.80959 0.73204,-1.60786 1.11782,-2.40241 0.38587,-0.7902 0.80692,-1.56269 1.2421,-2.32664 0.43216,-0.74481 0.90376,-1.46596 1.38628,-2.17889 0.47474,-0.70043 0.99706,-1.36616 1.53729,-2.01674 0.53598,-0.64209 1.11452,-1.24621 1.70751,-1.83537 0.59217,-0.58501 1.21917,-1.1327 1.85902,-1.66455 0.62582,-0.51704 1.28063,-0.99693 1.94704,-1.45986 0.66135,-0.45651 1.3465,-0.87658 2.03867,-1.28424 1.16293,-0.71209 2.36245,-1.35789 3.58634,-1.95685 0.7297,-0.35656 1.48157,-0.66499 2.23506,-0.967 0.76841,-0.31296 1.55473,-0.57786 2.34285,-0.83595 0.80799,-0.26308 1.62304,-0.50347 2.44008,-0.73662 0.83902,-0.23848 1.68342,-0.45723 2.52942,-0.6694 0.86398,-0.22235 1.73754,-0.40355 2.61164,-0.58082 0.89265,-0.1799 1.78824,-0.3447 2.68462,-0.50477 0.90088,-0.15242 1.80498,-0.28471 2.70938,-0.41427 0.9206,-0.13129 1.84269,-0.25205 2.76518,-0.36929 0.94079,-0.1192 1.88272,-0.22899 2.82499,-0.33567 0.946607,-0.10817 1.896158,-0.18812 2.845377,-0.26922 0.959824,-0.0814 1.920193,-0.15643 2.880727,-0.22926 0.961925,-0.0641 1.924725,-0.11392 2.887466,-0.1639 0.975567,-0.0503 1.951315,-0.0967 2.927123,-0.14171 0.976368,-0.036 1.953129,-0.0598 2.929829,-0.0843 0.816631,-0.0258 1.633579,-0.0328 2.450528,-0.0387 0,0 -1.381186,1.00508 -1.381186,1.00508 v 0 c -0.816359,0.006 -1.632673,0.0157 -2.448715,0.0411 -0.97602,0.0248 -1.952131,0.0483 -2.927698,0.0872 -0.975643,0.0453 -1.951225,0.0919 -2.92661,0.14247 -0.96197,0.0503 -1.924061,0.10002 -2.885049,0.16716 -0.960217,0.0733 -1.920298,0.14851 -2.879805,0.23065 -0.948357,0.0817 -1.896957,0.16313 -2.842567,0.27298 -0.94183,0.10727 -1.88333,0.21776 -2.82366,0.33761 -0.922,0.11799 -1.84357,0.23935 -2.76363,0.37153 -0.90333,0.13038 -1.80649,0.26305 -2.70582,0.41899 -0.89565,0.16102 -1.79048,0.3268 -2.68228,0.50807 -0.87276,0.17866 -1.74436,0.36369 -2.60699,0.58706 -0.84494,0.21355 -1.68827,0.43374 -2.52613,0.67386 -0.8158,0.23475 -1.62959,0.47677 -2.4361,0.74197 -0.78626,0.26024 -1.56967,0.52984 -2.33608,0.84475 -0.75146,0.30438 -1.50062,0.61634 -2.22724,0.97699 -0.60256,0.29808 -3.20761,1.69272 -0.65594,0.2767 -0.69341,0.40392 -1.37991,0.82019 -2.04322,1.27238 -0.66816,0.45824 -1.32478,0.93349 -1.95259,1.44621 -0.64182,0.52684 -1.27034,1.07025 -1.86481,1.65053 -0.59483,0.5841 -1.17543,1.18318 -1.71385,1.8203 -0.54238,0.64523 -1.06715,1.3056 -1.54403,2.00129 -0.48449,0.70865 -0.95543,1.42732 -1.39169,2.16684 -0.43747,0.75998 -0.85854,1.52987 -1.2468,2.31628 -0.38732,0.79192 -0.7651,1.58876 -1.12104,2.39534 -0.34844,0.80387 -0.6892,1.61099 -1.0008,2.43 -0.31687,0.82822 -0.64241,1.65328 -0.93793,2.48949 -0.30384,0.84571 -0.59081,1.69721 -0.87929,2.54824 -0.28363,0.86007 -0.57121,1.71881 -0.84645,2.58162 -0.2727,0.8745 -0.54207,1.75008 -0.79902,2.62935 -0.2618,0.88856 -0.51688,1.77899 -0.75385,2.67455 -0.24513,0.90188 -0.48243,1.80598 -0.71899,2.71011 -0.23573,0.91041 -0.4638,1.8227 -0.69515,2.73423 -0.22402,0.91821 -0.45606,1.83444 -0.67706,2.75339 -0.22717,0.90864 -0.46099,1.81568 -0.71434,2.71745 -0.24973,0.88579 -0.50684,1.76959 -0.7856,2.64678 -0.27455,0.86085 -0.55732,1.71915 -0.86383,2.56923 -0.30199,0.83483 -0.61492,1.66558 -0.94172,2.49104 -0.31363,0.8221 -0.63689,1.64059 -0.98604,2.44837 -0.34461,0.79713 -0.69277,1.59285 -1.04996,2.38442 -0.36011,0.77626 -0.7311,1.54764 -1.13299,2.30331 -0.39654,0.7431 -0.80963,1.47682 -1.22885,2.20735 -0.41721,0.72077 -0.84692,1.4345 -1.3108,2.12645 -0.45408,0.67555 -0.91773,1.34508 -1.4057,1.9967 -0.48512,0.63854 -0.97825,1.27149 -1.49024,1.88874 -0.51349,0.60308 -1.04305,1.19199 -1.59863,1.7568 -0.54335,0.54889 -1.09853,1.08683 -1.684,1.59099 -0.5869,0.49725 -1.19144,0.97206 -1.81279,1.42568 -0.62486,0.45299 -1.26071,0.8912 -1.91043,1.30788 -1.12329,0.72903 -2.28443,1.39779 -3.45486,2.04803 -0.68473,0.37539 -1.37104,0.74799 -2.06618,1.10385 -0.69307,0.35158 -1.39116,0.69278 -2.10231,1.00666 -0.70914,0.31544 -1.42039,0.62617 -2.14007,0.91694 -0.72328,0.29014 -1.44878,0.57479 -2.18253,0.83761 -0.73716,0.26212 -1.47714,0.51592 -2.22074,0.75924 -0.73581,0.2439 -1.47224,0.48607 -2.20925,0.72637 -0.72699,0.23638 -1.45588,0.46687 -2.18321,0.70219 -0.71009,0.22256 -1.41892,0.4491 -2.13104,0.66513 -0.70234,0.2071 -1.40623,0.40915 -2.11339,0.59923 -0.70113,0.18966 -1.40457,0.37085 -2.11409,0.52687 -0.70197,0.15468 -1.40454,0.30638 -2.10767,0.4558 -0.6852,0.1482 -1.37192,0.28983 -2.06173,0.41507 -0.6813,0.12464 -1.36451,0.23789 -2.05091,0.331 -0.67231,0.0934 -1.34556,0.18066 -2.01985,0.25841 -0.64552,0.0763 -1.29044,0.15723 -1.93543,0.23793 -0.62865,0.0727 -1.25823,0.13718 -1.88702,0.20866 -0.59519,0.0612 -1.19132,0.11301 -1.78624,0.17687 -0.55395,0.0571 -1.10836,0.10802 -1.66338,0.1535 -0.50587,0.0459 -1.01128,0.097 -1.51752,0.13854 -0.45958,0.0325 -0.91892,0.0681 -1.37846,0.10107 -0.40793,0.0236 -0.81635,0.0419 -1.22487,0.0502 -0.3463,8e-4 -0.69267,3.9e-4 -1.03835,-0.0234 -0.31395,-0.0168 -0.62772,-0.0363 -0.9418,-0.0502 0,0 1.38791,-1.00025 1.38791,-1.00025 z"
       inkscape:connector-curvature="0"
       inkscape:export-xdpi="78.010002"
       inkscape:export-ydpi="78.010002" />
    <rect
       style="opacity:1;fill:#c8b7b7;fill-opacity:1;stroke:none;stroke-width:0.30000001;stroke-linejoin:round;stroke-miterlimit:4;stroke-dasharray:none;stroke-dashoffset:0;stroke-opacity:1"
       id="rect849"
       width="289.15179"
       height="17.008928"
       x="-334.50891"
       y="14.273809"
       inkscape:export-xdpi="52.709999"
       inkscape:export-ydpi="52.709999" />
    <rect
       style="opacity:1;fill:#0000ff;fill-opacity:1;stroke:none;stroke-width:0.12126783;stroke-linejoin:round;stroke-miterlimit:4;stroke-dasharray:none;stroke-dashoffset:0;stroke-opacity:1"
       id="rect849-3"
       width="47.247032"
       height="17.008928"
       x="-334.50891"
       y="14.273809"
       inkscape:export-xdpi="52.709999"
       inkscape:export-ydpi="52.709999" />
    <path
       style="opacity:1;fill:#c8b7b7;fill-opacity:1;stroke:none;stroke-width:0.30000001;stroke-linejoin:round;stroke-miterlimit:4;stroke-dasharray:none;stroke-dashoffset:0;stroke-opacity:1"
       id="path866"
       d="m -332.75214,12.549079 c -0.0161,-0.173241 -0.0269,-0.346889 -0.0371,-0.520556 -0.0148,-0.21045 -0.0169,-0.4214 -0.0119,-0.632228 0.007,-0.23636 0.0335,-0.471646 0.064,-0.70599 0.0345,-0.254782 0.0902,-0.505778 0.15108,-0.7553409 0.0668,-0.2670868 0.15152,-0.5290124 0.24037,-0.7894169 0.0971,-0.2770746 0.20479,-0.5503143 0.32403,-0.818583 0.12748,-0.2879471 0.29068,-0.5571657 0.46287,-0.8200448 0.18486,-0.2799607 0.40282,-0.5352325 0.62579,-0.7850878 0.23897,-0.2666759 0.50313,-0.5084649 0.77486,-0.7410217 0.28853,-0.244701 0.59695,-0.4639583 0.91061,-0.6748595 0.64209,-0.4117136 1.30382,-0.7938267 1.98078,-1.1453334 0.36195,-0.1800338 0.73522,-0.3351339 1.11236,-0.480015 0.38651,-0.1495975 0.78132,-0.2752397 1.17822,-0.3938526 0.41275,-0.1264161 0.83349,-0.22313 1.25441,-0.3176257 0.43408,-0.092437 0.8712,-0.1687743 1.30988,-0.2356757 0.44714,-0.070595 0.89736,-0.1184658 1.34744,-0.1657349 0.4699,-0.049317 0.94165,-0.078733 1.41303,-0.1099485 0.4884,-0.032722 0.97777,-0.048184 1.46688,-0.065699 0.50334,-0.021962 1.00716,-0.025996 1.51088,-0.030979 0.51858,-0.00614 1.03711,-0.00988 1.55572,-0.00465 0.53046,0.00792 1.06103,0.010641 1.59139,0.024522 0.54007,0.017902 1.08029,0.031277 1.6201,0.055377 0.54705,0.025411 1.09394,0.053316 1.64041,0.089226 0.5511,0.032776 1.10104,0.081416 1.65116,0.1271688 0.55602,0.046863 1.11162,0.1000689 1.66645,0.1597234 0.56656,0.058822 1.13194,0.127358 1.69723,0.1972599 0.57083,0.066247 1.14003,0.1454353 1.70968,0.2209874 0.57409,0.075215 1.14676,0.1609621 1.72019,0.2410497 0.58589,0.088031 1.17187,0.1753457 1.75839,0.2590093 0.59447,0.08354 1.18751,0.1768904 1.78139,0.2644997 0.59783,0.087013 1.1942,0.1837929 1.79144,0.2747198 0.60285,0.086746 1.20404,0.1846199 1.80581,0.2786018 0.60849,0.096633 1.21904,0.1794909 1.82811,0.2722803 0.61248,0.095739 1.22555,0.1876827 1.83909,0.2763679 0.61812,0.088019 1.23481,0.1857541 1.85235,0.2777347 0.61661,0.098777 1.2332,0.1975186 1.85044,0.2921923 0.62646,0.095866 1.254,0.1844588 1.88188,0.2705185 0.63828,0.087202 1.27741,0.1677675 1.91683,0.2460744 0.6427,0.07738 1.2841,0.1652421 1.92616,0.247769 0.64794,0.083201 1.29665,0.1603968 1.94559,0.2354123 0.65484,0.071174 1.30897,0.1481896 1.96289,0.2273286 0.65582,0.07981 1.3122,0.1546405 1.96884,0.2272604 0.6617,0.068695 1.32266,0.1434299 1.9834,0.2203652 0.66207,0.077537 1.32469,0.1503113 1.98752,0.2209453 0.66847,0.06971 1.33729,0.1354955 2.00533,0.2094608 0.66742,0.075018 1.33522,0.1464159 2.00327,0.215577 0.67482,0.069681 1.35017,0.13434 2.02568,0.1972513 0.67326,0.069151 1.34626,0.1405181 2.0196,0.208811 0.67739,0.070101 1.35589,0.128827 2.03337,0.1979904 0.67515,0.071344 1.35046,0.1411981 2.02603,0.2085869 0.68125,0.067803 1.36298,0.1307955 2.04485,0.1920915 0.68805,0.061674 1.37648,0.1189529 2.06504,0.1747083 0.69469,0.054852 1.38956,0.1069854 2.08385,0.1667248 0.6999,0.061253 1.40002,0.1199065 2.10029,0.1767576 0.70488,0.057087 1.41007,0.1102262 2.11536,0.1619739 0.70953,0.051916 1.41933,0.1002361 2.1292,0.1473002 0.71377,0.047193 1.42774,0.091133 2.14179,0.1339358 0.71761,0.0429 1.43539,0.082857 2.15323,0.1217842 0.7211,0.039 1.44234,0.07533 2.16363,0.110734 0.72428,0.03545 1.44867,0.06849 2.17309,0.100686 0.71899,0.03287 1.43861,0.04928 2.15808,0.0677 0.71915,0.0182 1.43834,0.03494 2.15753,0.05127 0.72244,0.01636 1.4449,0.03161 2.16737,0.04646 0.72532,0.01609 1.45061,0.02997 2.1761,0.0344 0.72716,0.0018 1.45435,0.0079 2.18151,0.0028 0.72034,-0.0074 1.44065,-0.0177 2.16098,-0.02721 0.71859,-0.0056 1.43696,-0.0211 2.1553,-0.04024 0.71379,-0.02104 1.4278,-0.03527 2.14145,-0.06059 0.70795,-0.02747 1.41583,-0.05649 2.12377,-0.08421 0.70215,-0.02994 1.40343,-0.07492 2.10463,-0.121422 0.69774,-0.04455 1.39443,-0.103836 2.09064,-0.167709 0.68954,-0.062011 1.37765,-0.1387372 2.0651,-0.2204656 0.67841,-0.08196 1.35383,-0.1854915 2.02858,-0.292897 0.66244,-0.1073592 1.32103,-0.2359257 1.97863,-0.36924 0.63666,-0.1330899 1.27061,-0.2785766 1.90011,-0.4422042 0.61086,-0.161398 1.21249,-0.3541607 1.81227,-0.5520889 0.58066,-0.1936596 1.15112,-0.4153273 1.7197,-0.6414542 0.5501,-0.2225474 1.08988,-0.4699548 1.62337,-0.7295504 0.51831,-0.25629 1.02678,-0.5314604 1.53121,-0.813883 0.69004,-0.3999216 -0.26245,0.152595 -0.47277,0.2697533 -0.0834,0.046485 0.16378,-0.098363 0.2451,-0.1484916 0.24282,-0.1497017 0.48061,-0.307001 0.71886,-0.4638204 0.47267,-0.3083261 0.92491,-0.6460942 1.37492,-0.9861822 0.4165,-0.3305786 0.8419,-0.6490356 1.27656,-0.9552363 0.68116,-0.4693698 1.39813,-0.8875189 2.12993,-1.2724613 0.34271,-0.1804732 0.70011,-0.3278119 1.06211,-0.4641326 0.31486,-0.1184087 0.63749,-0.2105654 0.96701,-0.277029 0.29811,-0.066797 0.60105,-0.096503 0.90534,-0.1144218 0.29213,-0.012719 0.58441,-0.00536 0.87543,0.021846 0.28487,0.028539 0.56854,0.07041 0.84833,0.1311651 0.27282,0.067122 0.54169,0.1495042 0.80811,0.2384563 0.27356,0.096501 0.54115,0.2082713 0.80659,0.3249579 0.2682,0.1169629 0.52895,0.2499291 0.79097,0.379907 0.2637,0.1358438 0.52058,0.2842059 0.78132,0.425581 0.26385,0.1452153 0.53408,0.2783888 0.80715,0.4052657 0.29689,0.1368277 0.60178,0.2548909 0.90843,0.3676968 0.33969,0.1238626 0.68486,0.2316276 1.03125,0.3349191 0.37844,0.1120018 0.76065,0.2104281 1.14375,0.3049709 0.41137,0.1014071 0.82848,0.1774852 1.24517,0.2532827 0.44412,0.078972 0.88897,0.1542333 1.33564,0.2172862 0.46313,0.063049 0.92744,0.1168122 1.39188,0.169079 0.4892,0.054742 0.97899,0.1039517 1.46893,0.1514774 0.51243,0.048186 1.02482,0.097285 1.53819,0.1343393 0.52505,0.035595 1.05049,0.064907 1.57595,0.093726 0.54531,0.029745 1.09076,0.056742 1.63625,0.082885 0.56443,0.026943 1.12897,0.051525 1.69354,0.075342 0.58183,0.024453 1.16374,0.046825 1.74567,0.068518 0.59557,0.020809 1.19108,0.041159 1.7863,0.070281 0.60132,0.030564 1.20267,0.060356 1.80409,0.088983 0.61477,0.029184 1.22966,0.056053 1.84458,0.082134 0.62759,0.026529 1.25527,0.050971 1.88297,0.07471 0.63925,0.024098 1.27857,0.046332 1.91791,0.067937 0.64985,0.021892 1.29975,0.042117 1.94967,0.061777 0.65141,0.020587 1.30321,0.025223 1.95487,0.032244 0.65761,0.00691 1.31522,0.013086 1.97283,0.019124 0.66648,0.0061 1.33296,0.01174 1.99944,0.017227 0.6746,0.00554 1.3492,0.010668 2.0238,0.015661 0.68198,0.00503 1.36396,0.0097 2.04594,0.01424 0.68869,0.00457 1.37739,0.00882 2.06609,0.012949 0.69479,0.00416 1.38959,0.00802 2.08439,0.011774 0.70035,0.00378 1.4007,0.00729 2.10105,0.010705 0.70539,0.00343 1.41079,0.00663 2.11618,0.00973 0.70911,0.00452 1.41826,0.00269 2.12732,0.012147 0.70387,0.011753 1.4077,0.026096 2.11155,0.039531 0.70753,0.01351 1.41508,0.026133 2.12264,0.038417 0.71191,0.012327 1.42383,0.023799 2.13576,0.034974 0.71591,0.011205 1.43183,0.021638 2.14775,0.031801 0.71955,0.010186 1.4391,0.019674 2.15866,0.028916 0.72285,0.00926 1.4457,0.017886 2.16856,0.026292 0.72585,0.00842 1.45171,0.016264 2.17757,0.023908 0.71889,0.00153 1.43778,-0.00362 2.15666,-0.00762 0.71461,2.91e-4 1.42904,-0.015534 2.14347,-0.030195 0.71293,-0.01366 1.42579,-0.027994 2.13848,-0.050948 0.71432,-0.022884 1.42854,-0.04696 2.14248,-0.079704 0.70953,-0.033712 1.41909,-0.066869 2.1287,-0.098882 0.70582,-0.030745 1.411,-0.074852 2.11634,-0.115094 0.70268,-0.03603 1.4048,-0.080536 2.1068,-0.1279348 0.69636,-0.043362 1.39205,-0.09546 2.0876,-0.1501563 0.69043,-0.050582 1.38013,-0.1094973 2.06967,-0.1708304 0.68925,-0.057527 1.37734,-0.1276789 2.06568,-0.1949473 0.69089,-0.063361 1.38103,-0.1338437 2.070991,-0.206551 0.687697,-0.070635 1.374108,-0.1529813 2.059828,-0.2405345 0.683985,-0.088571 1.368502,-0.1729216 2.053328,-0.2547043 0.680697,-0.08804 1.361266,-0.1770029 2.042293,-0.2624556 0.685355,-0.085835 1.371433,-0.1656953 2.057746,-0.2434172 0.691775,-0.078118 1.384152,-0.1507252 2.07672,-0.2214163 0.697643,-0.071008 1.395772,-0.1370354 2.094061,-0.2013296 0.702966,-0.064545 1.406334,-0.1245884 2.109827,-0.1830634 0.707803,-0.058671 1.415931,-0.1132726 2.124165,-0.1664544 0.712195,-0.053333 1.424657,-0.1029851 2.137203,-0.1513515 0.716185,-0.048481 1.432587,-0.093633 2.149057,-0.1376187 0.719807,-0.044072 1.439794,-0.08513 2.159836,-0.1251321 0.723101,-0.040064 1.446348,-0.077399 2.169639,-0.1137777 0.726091,-0.036422 1.452301,-0.070371 2.17855,-0.1034537 0.728811,-0.033111 1.457717,-0.063982 2.186655,-0.094066 0.731279,-0.030102 1.462637,-0.058173 2.194022,-0.085531 0.733523,-0.027366 1.467112,-0.052891 2.200723,-0.077769 0.731419,-0.028475 1.463108,-0.045303 2.194946,-0.057773 0.714253,-0.014971 1.428708,-0.00989 2.142826,0.00829 0.685787,0.016954 1.370764,0.056378 2.054743,0.10792 0.658826,0.049092 1.315845,0.1193588 1.971339,0.2011627 0.63222,0.07467 1.259528,0.1837269 1.885927,0.2959801 0.607718,0.1091062 1.210471,0.2415775 1.80826,0.3956992 0.579136,0.1431623 1.147683,0.3233475 1.709378,0.5234037 0.519504,0.1818987 1.028411,0.3912473 1.530339,0.6167081 0.46278,0.2133219 0.910892,0.4569444 1.35546,0.7055405 0.424006,0.2406412 0.831681,0.5086199 1.231345,0.7874275 0.386093,0.2682992 0.75693,0.5576583 1.119277,0.8570055 0.282088,0.2344243 0.552249,0.4822796 0.819354,0.7334499 0,0 -0.962779,0.5941391 -0.962779,0.5941391 v 0 c -0.265634,-0.2492616 -0.53462,-0.4949127 -0.815271,-0.7273333 -0.3609,-0.2965608 -0.72998,-0.5834083 -1.114267,-0.8492492 -0.397761,-0.2755895 -0.803097,-0.5409179 -1.225192,-0.7780705 -0.442691,-0.2459842 -0.888384,-0.4879367 -1.349828,-0.6973052 -0.500425,-0.2225209 -1.007647,-0.4291351 -1.525003,-0.6093608 -0.560025,-0.1967674 -1.126844,-0.3732863 -1.703525,-0.5151109 -0.596402,-0.1511099 -1.197604,-0.2811558 -1.803429,-0.388941 -0.625123,-0.1112805 -1.251418,-0.217407 -1.882296,-0.2910686 -0.654489,-0.079779 -1.310325,-0.1491096 -1.968018,-0.1967413 -0.682916,-0.049508 -1.366708,-0.087958 -2.051328,-0.1034587 -0.713208,-0.016195 -1.42667,-0.020161 -2.13995,-0.0046 -0.731459,0.012896 -1.462738,0.031321 -2.193798,0.05926 -0.733536,0.024982 -1.467051,0.050615 -2.200497,0.078096 -0.731303,0.027473 -1.462582,0.055662 -2.193777,0.085891 -0.728848,0.030211 -1.457664,0.061213 -2.186379,0.094465 -0.726149,0.033223 -1.452258,0.067317 -2.178248,0.1038953 -0.723181,0.036534 -1.446313,0.074029 -2.169301,0.1142672 -0.719918,0.040175 -1.43978,0.08141 -2.159463,0.1256742 -0.716333,0.044177 -1.432597,0.089526 -2.148639,0.1382201 -0.712393,0.048579 -1.424701,0.09845 -2.13674,0.1520196 -0.708062,0.053417 -1.416021,0.1082617 -2.123649,0.1671963 -0.703302,0.058737 -1.40648,0.1190508 -2.10925,0.1838891 -0.698075,0.064586 -1.395992,0.1309134 -2.093416,0.2022485 -0.692332,0.071015 -1.384469,0.1439572 -2.076,0.2224403 -0.686056,0.078083 -1.37187,0.1583227 -2.05696,0.2445289 -0.681083,0.085834 -1.361657,0.1755643 -2.042674,0.2619013 -0.684649,0.082158 -1.36897,0.1670055 -2.052846,0.2553832 -0.686205,0.086949 -1.373182,0.1679118 -2.061275,0.2385682 -0.69011,0.072596 -1.38054,0.1414796 -2.07147,0.2058652 -0.68852,0.067395 -1.37689,0.1364085 -2.06631,0.1941586 -0.68975,0.061173 -1.37977,0.1184886 -2.07033,0.1698797 -0.69577,0.054507 -1.3918,0.1050055 -2.08832,0.1491287 -0.7022,0.047182 -1.40463,0.090062 -2.10746,0.126987 -0.70556,0.040331 -1.411,0.083901 -2.1171,0.1139902 -0.7096,0.032147 -1.41915,0.065529 -2.1287,0.098901 -0.71423,0.032036 -1.42878,0.055294 -2.14335,0.078447 -0.71296,0.022278 -1.4261,0.03575 -2.13926,0.04993 -0.71474,0.014523 -1.4295,0.028934 -2.14443,0.028811 -0.71921,0.00397 -1.43844,0.00938 -2.15767,0.00612 -0.72589,-0.00767 -1.45178,-0.015547 -2.17767,-0.023998 -0.72289,-0.00844 -1.44577,-0.017097 -2.16866,-0.026392 -0.71959,-0.00928 -1.43918,-0.018801 -2.15875,-0.029027 -0.71597,-0.010202 -1.43193,-0.020675 -2.14787,-0.031925 -0.71198,-0.011218 -1.42395,-0.022736 -2.1359,-0.035112 -0.7076,-0.012332 -1.4152,-0.025008 -2.12277,-0.038557 -0.7037,-0.013459 -1.40737,-0.027975 -2.1111,-0.038913 -0.7089,-0.00799 -1.41786,-0.00721 -2.12679,-0.01143 -0.70541,-0.00312 -1.41082,-0.00632 -2.11624,-0.00976 -0.70037,-0.00343 -1.40073,-0.00695 -2.1011,-0.010734 -0.69482,-0.00377 -1.38965,-0.00764 -2.08447,-0.011808 -0.68872,-0.00414 -1.37744,-0.0084 -2.06616,-0.012986 -0.68201,-0.00456 -1.36402,-0.00924 -2.04603,-0.014285 -0.67463,-0.00501 -1.34926,-0.010155 -2.02389,-0.015711 -0.66651,-0.00551 -1.33303,-0.011165 -1.99954,-0.017283 -0.65766,-0.00606 -1.31533,-0.012245 -1.97299,-0.019246 -0.6521,-0.00716 -1.30432,-0.012557 -1.95615,-0.03403 -0.65001,-0.019751 -1.30001,-0.040071 -1.94995,-0.062066 -0.63945,-0.021709 -1.27887,-0.04405 -1.91823,-0.068267 -0.62782,-0.023858 -1.25562,-0.048422 -1.88334,-0.075088 -0.61505,-0.026215 -1.23007,-0.053228 -1.84499,-0.082562 -0.60144,-0.028763 -1.20281,-0.058789 -1.80418,-0.088994 -0.59501,-0.028348 -1.19033,-0.047683 -1.78561,-0.069258 -0.58207,-0.021812 -1.16412,-0.044314 -1.74608,-0.06891 -0.56473,-0.023958 -1.12942,-0.04869 -1.69401,-0.075805 -0.54568,-0.026313 -1.09132,-0.053485 -1.63681,-0.083454 -0.52592,-0.029068 -1.05185,-0.058448 -1.57729,-0.095429 -0.51378,-0.039221 -1.02683,-0.087398 -1.53977,-0.1363932 -0.49033,-0.047927 -0.9805,-0.097557 -1.47007,-0.1528191 -0.46518,-0.052824 -0.93027,-0.1069869 -1.39396,-0.1718093 -0.44735,-0.065582 -0.8933,-0.1403665 -1.33823,-0.2207361 -0.41826,-0.07698 -0.83673,-0.155045 -1.24932,-0.2589697 -0.38424,-0.095858 -0.76757,-0.1956823 -1.147,-0.3093651 -0.34789,-0.1050279 -0.69452,-0.2146453 -1.03545,-0.3407341 -0.30859,-0.1151445 -0.61531,-0.2357384 -0.9138,-0.3753755 -0.27419,-0.1291613 -0.54559,-0.2643052 -0.81093,-0.4109124 -0.25942,-0.1411875 -0.51516,-0.2892087 -0.77904,-0.422047 -0.26063,-0.1292592 -0.52065,-0.2601886 -0.78796,-0.3753291 -0.2632,-0.1143828 -0.52879,-0.223637 -0.80065,-0.316019 -0.26416,-0.085292 -0.52969,-0.1678042 -0.80091,-0.2279389 -0.27768,-0.054965 -0.55828,-0.095584 -0.84036,-0.1199394 -0.28803,-0.020996 -0.57707,-0.025973 -0.86551,-0.00829 -0.3013,0.021634 -0.60051,0.060424 -0.89542,0.1275125 -0.32557,0.073395 -0.64457,0.1705585 -0.95612,0.2906631 -0.35956,0.1389233 -0.71299,0.2926841 -1.05296,0.475087 -0.43335,0.2350336 -0.31335,0.1722782 0.59307,-0.351451 0.55705,-0.3218648 -1.36729,0.7871232 -0.78926,0.5002654 -0.43564,0.3043663 -0.86473,0.6176256 -1.27846,0.9514631 -0.44925,0.3420734 -0.90081,0.6818862 -1.37222,0.9931738 -0.78844,0.5201574 -1.59089,1.0159185 -2.42374,1.4639785 -0.50588,0.2806033 -1.01516,0.5551683 -1.53528,0.8086931 -0.5355,0.2569117 -1.07633,0.5034666 -1.62835,0.7230758 -0.56949,0.2255708 -1.14193,0.4440232 -1.72377,0.6360493 -0.6009,0.1972453 -1.20447,0.3869018 -1.81675,0.5461249 -0.63098,0.1608733 -1.2658,0.3060525 -1.90359,0.437397 -0.65841,0.1327118 -1.3181,0.2592376 -1.9814,0.3653746 -0.67556,0.106869 -1.35199,0.208485 -2.03124,0.289305 -0.68803,0.08108 -1.37678,0.156346 -2.06685,0.217989 -0.69675,0.06327 -1.39404,0.121133 -2.09229,0.165422 -0.70175,0.04629 -1.40367,0.09005 -2.10639,0.118957 -0.70803,0.02782 -1.41601,0.05711 -2.12409,0.08376 -0.71387,0.02378 -1.42799,0.0393 -2.14196,0.05985 -0.71863,0.01881 -1.4373,0.03271 -2.15615,0.03901 -0.72048,0.0095 -1.44095,0.02 -2.16146,0.02653 -0.72743,0.0035 -1.45489,-0.0014 -2.18233,-0.004 -0.72578,-0.0052 -1.45139,-0.02004 -2.17703,-0.03566 -0.72252,-0.01491 -1.44503,-0.03021 -2.16753,-0.04664 -0.71926,-0.01641 -1.43852,-0.0332 -2.15774,-0.05153 -0.71988,-0.01859 -1.4399,-0.03575 -2.15927,-0.06945 -0.72454,-0.03233 -1.44904,-0.0655 -2.17342,-0.101101 -0.7214,-0.03555 -1.44276,-0.07203 -2.16398,-0.111195 -0.71797,-0.03909 -1.43589,-0.07921 -2.15363,-0.122295 -0.71419,-0.04298 -1.42831,-0.08711 -2.14222,-0.134505 -0.71004,-0.04727 -1.41999,-0.09579 -2.12969,-0.147934 -0.70547,-0.05197 -1.41084,-0.105343 -2.11589,-0.162672 -0.70036,-0.05708 -1.40057,-0.116043 -2.10059,-0.1771365 -0.69423,-0.059238 -1.38906,-0.1106678 -2.08359,-0.1662885 -0.68876,-0.056008 -1.3774,-0.113547 -2.06566,-0.1755032 -0.68209,-0.061579 -1.36404,-0.1248648 -2.04552,-0.1929683 -0.67557,-0.067654 -1.35086,-0.1379387 -2.02611,-0.2086896 -0.67762,-0.067884 -1.356,-0.1279816 -2.03341,-0.1980287 -0.6731,-0.068513 -1.34586,-0.1404101 -2.01903,-0.2080688 -0.67575,-0.063207 -1.35134,-0.1281719 -2.02642,-0.1981753 -0.66818,-0.069466 -1.33612,-0.1412605 -2.00372,-0.2161612 -0.66796,-0.073462 -1.33681,-0.1385448 -2.00509,-0.2091385 -0.66305,-0.070965 -1.32585,-0.1441207 -1.98816,-0.2217934 -0.66064,-0.076842 -1.32162,-0.1501595 -1.98302,-0.219865 -0.65688,-0.072965 -1.3135,-0.1481947 -1.96954,-0.2281563 -0.65381,-0.079057 -1.30796,-0.1546548 -1.96257,-0.2268651 -0.64923,-0.075392 -1.29823,-0.1529882 -1.94649,-0.2365518 -0.64185,-0.082777 -1.28315,-0.1702972 -1.92574,-0.2472259 -0.63976,-0.078715 -1.27923,-0.159703 -1.91783,-0.2473671 -0.62825,-0.086523 -1.25614,-0.1755998 -1.88299,-0.2719568 -0.61706,-0.095051 -1.23341,-0.1945246 -1.85015,-0.2917814 -0.61738,-0.092295 -1.23399,-0.1897391 -1.85206,-0.2773355 -0.61367,-0.089114 -1.22682,-0.1816743 -1.83954,-0.2769216 -0.60939,-0.091542 -1.21986,-0.1760617 -1.82848,-0.2727166 -0.60164,-0.09421 -1.2029,-0.190925 -1.8056,-0.2782427 -0.59706,-0.091256 -1.19335,-0.187751 -1.79115,-0.2742798 -0.5937,-0.087928 -1.18665,-0.1809737 -1.78107,-0.264047 -0.58644,-0.084043 -1.17226,-0.1720946 -1.75831,-0.2586781 -0.57322,-0.080383 -1.14575,-0.1657993 -1.71974,-0.2403806 -0.56941,-0.075701 -1.13855,-0.1535978 -1.70913,-0.2201299 -0.56488,-0.069739 -1.13003,-0.136757 -1.69614,-0.1956422 -0.55446,-0.058053 -1.10939,-0.1119515 -1.66499,-0.1576019 -0.5497,-0.045731 -1.09932,-0.092885 -1.65002,-0.1254821 -0.546,-0.035068 -1.09242,-0.062071 -1.63897,-0.087187 -0.53948,-0.022228 -1.07923,-0.037214 -1.6189,-0.053644 -0.53009,-0.011941 -1.06032,-0.016137 -1.59046,-0.02308 -0.51822,-0.0042 -1.03635,8.466e-4 -1.55451,0.00646 -0.50319,0.00533 -1.0064,0.01138 -1.50918,0.033389 -0.48853,0.017828 -0.97724,0.03436 -1.46492,0.068529 -0.47064,0.031666 -0.94155,0.062338 -1.41055,0.1135811 -0.44913,0.048052 -0.89815,0.098375 -1.34424,0.1701337 -0.43717,0.068735 -0.87292,0.1467871 -1.30519,0.2419236 -0.41963,0.095853 -0.83844,0.1960687 -1.24968,0.3240427 -0.39532,0.1205558 -0.78804,0.249601 -1.17287,0.4008363 -0.37489,0.1476007 -0.74623,0.305126 -1.10451,0.4899898 -0.34877,0.1847903 -1.08151,0.6134838 0.45247,-0.276411 0.16756,-0.097217 -0.67337,0.3816083 -0.49718,0.3010202 -0.3148,0.2071391 -0.6246,0.4224326 -0.9153,0.6627558 -0.27318,0.2279139 -0.5393,0.4648171 -0.78057,0.7268874 -0.22411,0.2451616 -0.44363,0.49565 -0.63223,0.7697279 -0.17407,0.2571705 -0.34006,0.5206328 -0.47016,0.8033261 -0.1225,0.2641399 -0.22929,0.5349504 -0.32853,0.8086511 -0.0886,0.2578449 -0.17592,0.5162195 -0.24456,0.7803014 -0.0611,0.2461112 -0.11972,0.492941 -0.15642,0.7441323 -0.0312,0.230965 -0.0593,0.462707 -0.069,0.695736 -0.008,0.207676 -0.007,0.415768 0.007,0.623182 0.01,0.172542 0.0204,0.345067 0.0353,0.517248 0,0 -1.0046,0.523386 -1.0046,0.523386 z"
       inkscape:connector-curvature="0"
       inkscape:export-xdpi="52.709999"
       inkscape:export-ydpi="52.709999" />
    <text
       xml:space="preserve"
       style="font-style:normal;font-weight:normal;font-size:25.39999962px;line-height:1.25;font-family:sans-serif;letter-spacing:0px;word-spacing:0px;fill:#000000;fill-opacity:1;stroke:none;stroke-width:0.26458332"
       x="-239.6369"
       y="-13.318453"
       id="text870"
       inkscape:export-xdpi="52.709999"
       inkscape:export-ydpi="52.709999"><tspan
         sodipodi:role="line"
         id="tspan868"
         x="-239.6369"
         y="-13.318453"
         style="font-size:11.28888893px;stroke-width:0.26458332">Original Dataset</tspan></text>
    <path
       style="opacity:1;fill:#c8b7b7;fill-opacity:1;stroke:none;stroke-width:0.29083169;stroke-linejoin:round;stroke-miterlimit:4;stroke-dasharray:none;stroke-dashoffset:0;stroke-opacity:1"
       id="path891"
       d="m -333.29005,36.055948 c 0.0317,0.160073 0.0635,0.320241 0.10098,0.478917 0.0377,0.15426 0.0862,0.305517 0.13704,0.455366 0.0523,0.15815 0.11933,0.309803 0.18743,0.460754 0.0721,0.16438 0.15236,0.324426 0.23077,0.485452 0.0844,0.165121 0.1709,0.32884 0.25994,0.491156 0.0976,0.170532 0.1997,0.337892 0.30407,0.50378 0.10692,0.165312 0.22483,0.322178 0.34769,0.474287 0.12354,0.153564 0.25923,0.295275 0.39982,0.430964 0.14258,0.142044 0.3014,0.263009 0.4637,0.377783 0.16727,0.114038 0.34518,0.209732 0.52688,0.294698 0.18764,0.08472 0.37903,0.15879 0.57393,0.22208 0.20077,0.06698 0.40869,0.102206 0.6161,0.136184 0.21397,0.04074 0.43042,0.05701 0.64726,0.06626 0.22739,0.0114 0.45512,0.0011 0.68149,-0.02223 0.23805,-0.02463 0.47557,-0.05257 0.71254,-0.08672 0.24903,-0.04051 0.49525,-0.0967 0.74194,-0.150366 0.25722,-0.06471 0.51411,-0.130662 0.77213,-0.191603 0.27733,-0.06688 0.55753,-0.119015 0.8356,-0.182033 0.29282,-0.06944 0.58681,-0.133012 0.88122,-0.194339 0.31632,-0.06479 0.6338,-0.122865 0.95164,-0.178555 0.33686,-0.05888 0.67466,-0.111326 1.01259,-0.162639 0.35369,-0.05174 0.70736,-0.104378 1.06239,-0.144404 0.35159,-0.0407 0.70458,-0.06611 1.05792,-0.08051 0.33211,-0.01807 0.66434,2.64e-4 0.99563,0.02468 0.29314,0.01947 0.5843,0.06542 0.87282,0.12282 0.25666,0.05837 0.50895,0.137073 0.75475,0.234685 0.22949,0.09554 0.44845,0.21548 0.66452,0.340773 0.21091,0.121769 0.40185,0.275725 0.58807,0.435465 0.18378,0.161578 0.35106,0.342598 0.51801,0.523221 0.1664,0.181502 0.30866,0.385919 0.44524,0.593072 0.11969,0.191142 0.23509,0.38536 0.35745,0.574561 0.0802,0.134697 0.17065,0.261654 0.2639,0.386246 0.0555,0.07092 0.11836,0.133888 0.18633,0.190858 0.0505,0.03129 0.0544,0.03519 0.0843,-0.0051 -1.104,0.731081 -0.87638,0.534649 -0.67829,0.04281 0.0455,-0.114162 0.1011,-0.222842 0.17095,-0.322085 0.0864,-0.117906 0.19263,-0.216344 0.30324,-0.307554 0.48551,-0.35714 1.00458,-0.670338 1.55143,-0.907682 0.21688,-0.08588 0.43254,-0.175081 0.65107,-0.256339 0.24577,-0.08929 0.49453,-0.168775 0.74457,-0.243327 0.27224,-0.0827 0.54961,-0.14374 0.82702,-0.203041 0.29248,-0.06157 0.58606,-0.116811 0.87998,-0.170088 0.31607,-0.05836 0.63343,-0.106828 0.95209,-0.145888 0.34001,-0.03999 0.6806,-0.07462 1.02123,-0.108098 0.36653,-0.0358 0.73342,-0.06712 1.10039,-0.09717 0.38875,-0.02508 0.77796,-0.04177 1.16709,-0.05869 0.41227,-0.0217 0.82484,-0.03042 1.23757,-0.03565 0.42354,-0.0088 0.84698,-0.0054 1.27049,0.0013 0.42506,0.0028 0.8497,0.02289 1.27435,0.04084 0.42979,0.0173 0.85949,0.03466 1.28888,0.06112 0.42722,0.02574 0.85414,0.05779 1.28168,0.07734 0.41317,0.01799 0.82639,0.03101 1.23989,0.03478 0.39815,0.0026 0.7963,0.0034 1.19448,0.0044 0.40109,0.0011 0.80217,0.0019 1.20328,0.0029 0.41469,-5.29e-4 0.8294,0.0052 1.24407,-7.94e-4 0.41404,-0.0056 0.82786,-0.01818 1.24107,-0.04635 0.38876,-0.0226 0.77458,-0.07582 1.15895,-0.13964 0.34251,-0.06006 0.68367,-0.130638 1.02192,-0.213778 0.29455,-0.07257 0.58474,-0.164218 0.87326,-0.26004 0.24273,-0.08335 0.47789,-0.188428 0.71071,-0.298678 -0.29612,0.221319 0.70466,-0.401769 0.40027,-0.21958 -0.7559,0.452446 -0.96147,0.603716 -0.59464,0.342845 0.17874,-0.126006 0.34354,-0.271185 0.50291,-0.423257 0.12796,-0.121002 0.24257,-0.256434 0.3512,-0.396857 0.0949,-0.122126 0.17319,-0.256778 0.2471,-0.393922 0.0648,-0.127563 0.11965,-0.260281 0.16555,-0.396676 0.0443,-0.134829 0.0665,-0.274781 0.079,-0.416452 0.007,-0.09857 0.005,-0.04966 0.008,-0.146722 0,0 0.94985,-0.512135 0.94985,-0.512135 v 0 c 0,0.102216 0,0.05128 -0.005,0.152815 -0.0102,0.14895 -0.0253,0.297058 -0.0681,0.440111 -0.04,0.143724 -0.0958,0.280826 -0.15755,0.415422 -0.0692,0.143727 -0.14791,0.283144 -0.23989,0.411737 -0.10461,0.147261 -0.21927,0.286488 -0.34454,0.414332 -0.15899,0.155059 -0.31913,0.308996 -0.49816,0.438073 -0.51396,0.380466 -1.05872,0.720471 -1.6303,0.993047 -0.23521,0.107419 -0.47279,0.209315 -0.71798,0.288391 -0.29019,0.09364 -0.58176,0.183462 -0.87804,0.252891 -0.34012,0.07918 -0.68198,0.150908 -1.02614,0.207312 -0.38629,0.06152 -0.77432,0.109249 -1.16457,0.13122 -0.41434,0.02495 -0.82912,0.03699 -1.24409,0.04182 -0.41501,0.0038 -0.82999,-2.17e-4 -1.245,-2.35e-4 -0.40111,-7.94e-4 -0.80223,-0.0019 -1.20334,-0.0029 -0.3983,-0.0011 -0.79663,-0.0019 -1.1949,-0.0052 -0.4142,-0.0052 -0.82816,-0.01955 -1.24203,-0.0381 -0.42766,-0.02199 -0.85486,-0.05258 -1.28235,-0.07838 -0.42904,-0.02537 -0.85842,-0.04149 -1.28778,-0.05954 -0.42414,-0.01775 -0.8483,-0.03576 -1.27281,-0.0385 -0.42297,-0.0061 -0.84588,-0.007 -1.26883,0.0013 -0.41217,0.0059 -0.82413,0.01736 -1.23588,0.03833 -0.38846,0.01723 -0.77699,0.03368 -1.1649,0.06206 -0.36669,0.0305 -0.73331,0.0623 -1.09956,0.09869 -0.34019,0.03399 -0.68033,0.0687 -1.01975,0.110466 -0.31753,0.0412 -0.63373,0.09238 -0.94888,0.150709 -0.2933,0.0541 -0.58634,0.109866 -0.87807,0.172964 -0.27606,0.06088 -0.55159,0.125163 -0.82218,0.209933 -0.24876,0.07647 -0.49645,0.157152 -0.74055,0.24919 -0.21706,0.08344 -0.43314,0.170101 -0.64732,0.261554 -1.14,0.529574 0.94627,-0.592654 0.27385,-0.211259 -0.11294,0.08228 -0.22026,0.172873 -0.31378,0.279789 -0.0732,0.09037 -0.13841,0.184396 -0.18192,0.295544 -0.27059,0.616956 -0.1475,0.603536 -1.13257,1.122852 -0.0515,-0.02296 -0.10224,-0.04729 -0.14471,-0.08739 -0.0713,-0.0646 -0.13901,-0.133649 -0.19784,-0.211614 -0.094,-0.127154 -0.18582,-0.256233 -0.26723,-0.393089 -0.12174,-0.189153 -0.237,-0.382926 -0.35655,-0.573646 -0.13365,-0.201864 -0.2728,-0.400986 -0.43627,-0.577035 -0.16434,-0.177374 -0.32942,-0.354751 -0.51145,-0.511926 -0.18246,-0.154792 -0.37086,-0.301861 -0.5777,-0.418351 -0.21278,-0.121653 -0.42906,-0.237064 -0.65579,-0.326867 -0.24291,-0.09119 -0.49115,-0.167359 -0.74436,-0.218889 -0.2866,-0.0527 -0.57499,-0.09613 -0.86571,-0.11262 -0.32914,-0.02199 -0.65906,-0.03448 -0.98869,-0.01482 -0.35192,0.01781 -0.70352,0.04388 -1.05363,0.08656 -0.35417,0.04317 -0.70742,0.09436 -1.06038,0.147399 -0.33753,0.05168 -0.67484,0.105183 -1.01125,0.164725 -0.31724,0.05659 -0.6342,0.11516 -0.94983,0.181377 -0.29408,0.06228 -0.58762,0.127447 -0.88065,0.195302 -0.27842,0.06007 -0.55761,0.11634 -0.83465,0.18356 -0.258,0.06238 -0.51486,0.13003 -0.77339,0.189942 -0.24777,0.0541 -0.4958,0.107492 -0.74653,0.144055 -0.23796,0.03283 -0.47668,0.05915 -0.71566,0.08242 -0.22954,0.01746 -0.45975,0.02482 -0.6897,0.01032 -0.21933,-0.01246 -0.43769,-0.0359 -0.65415,-0.07646 -0.21094,-0.03678 -0.42145,-0.07865 -0.62498,-0.149765 -0.19721,-0.06748 -0.39143,-0.144597 -0.58112,-0.23337 -0.18488,-0.09109 -0.36696,-0.190037 -0.53665,-0.310626 -0.16524,-0.119637 -0.32646,-0.245812 -0.47213,-0.392018 -0.14273,-0.139901 -0.28093,-0.285265 -0.40666,-0.442806 -0.12487,-0.156099 -0.24534,-0.316416 -0.35411,-0.485762 -0.10547,-0.167852 -0.20875,-0.337212 -0.30739,-0.509749 -0.0899,-0.163941 -0.17732,-0.329359 -0.26268,-0.496091 -0.0788,-0.162039 -0.15977,-0.323017 -0.23235,-0.488394 -0.0696,-0.154221 -0.13873,-0.308907 -0.1926,-0.470387 -0.053,-0.152863 -0.10203,-0.307793 -0.1421,-0.465045 -0.0398,-0.160631 -0.0705,-0.323768 -0.10391,-0.486021 0,0 0.93918,-0.532556 0.93918,-0.532556 z"
       inkscape:connector-curvature="0"
       inkscape:export-xdpi="52.709999"
       inkscape:export-ydpi="52.709999" />
    <text
       xml:space="preserve"
       style="font-style:normal;font-weight:normal;font-size:25.39999962px;line-height:1.25;font-family:sans-serif;letter-spacing:0px;word-spacing:0px;fill:#000000;fill-opacity:1;stroke:none;stroke-width:0.26458332"
       x="-333.82346"
       y="58.209606"
       id="text870-6"
       inkscape:export-xdpi="52.709999"
       inkscape:export-ydpi="52.709999"><tspan
         sodipodi:role="line"
         id="tspan868-7"
         x="-333.82346"
         y="58.209606"
         style="font-size:11.28888893px;stroke-width:0.26458332">Holdout</tspan></text>
    <path
       style="opacity:1;fill:#c8b7b7;fill-opacity:1;stroke:none;stroke-width:0.21286263;stroke-linejoin:round;stroke-miterlimit:4;stroke-dasharray:none;stroke-dashoffset:0;stroke-opacity:1"
       id="path891-5"
       d="m -284.01568,36.316591 c 0.017,0.160073 0.034,0.320241 0.0541,0.478917 0.0202,0.15426 0.0462,0.305517 0.0734,0.455366 0.028,0.15815 0.0639,0.309803 0.1004,0.460754 0.0386,0.16438 0.0816,0.324426 0.12362,0.485452 0.0452,0.165121 0.0915,0.32884 0.13925,0.491156 0.0523,0.170532 0.10698,0.337892 0.16289,0.50378 0.0573,0.165312 0.12044,0.322178 0.18625,0.474287 0.0662,0.153564 0.13887,0.295275 0.21418,0.430964 0.0764,0.142044 0.16146,0.263009 0.2484,0.377783 0.0896,0.114038 0.18491,0.209732 0.28225,0.294698 0.10052,0.08472 0.20304,0.15879 0.30745,0.22208 0.10755,0.06698 0.21893,0.102206 0.33004,0.136184 0.11462,0.04074 0.23057,0.05701 0.34673,0.06626 0.12181,0.0114 0.24381,0.0011 0.36507,-0.02223 0.12752,-0.02463 0.25476,-0.05257 0.3817,-0.08672 0.13341,-0.04051 0.2653,-0.0967 0.39745,-0.150366 0.13779,-0.06471 0.27541,-0.130662 0.41363,-0.191603 0.14856,-0.06688 0.29866,-0.119015 0.44762,-0.182033 0.15686,-0.06944 0.31435,-0.133013 0.47207,-0.19434 0.16945,-0.06479 0.33952,-0.122865 0.50978,-0.178555 0.18045,-0.05888 0.36141,-0.111325 0.54244,-0.162638 0.18947,-0.05174 0.37893,-0.104379 0.56911,-0.144405 0.18835,-0.0407 0.37744,-0.06611 0.56672,-0.08051 0.17791,-0.01807 0.35588,2.64e-4 0.53335,0.02468 0.15704,0.01947 0.31301,0.06542 0.46757,0.12282 0.13749,0.05837 0.27264,0.137073 0.40431,0.234685 0.12294,0.09554 0.24023,0.21548 0.35598,0.340773 0.11298,0.121769 0.21527,0.275725 0.31502,0.435465 0.0985,0.161578 0.18806,0.342598 0.2775,0.523221 0.0891,0.181502 0.16534,0.385919 0.23851,0.593072 0.0641,0.191142 0.12593,0.385361 0.19148,0.574561 0.043,0.134697 0.0914,0.261655 0.14137,0.386246 0.0297,0.07092 0.0634,0.133888 0.0998,0.190859 0.027,0.03129 0.0291,0.03519 0.0451,-0.0051 -0.5914,0.731081 -0.46947,0.534649 -0.36335,0.04281 0.0244,-0.114163 0.0542,-0.222843 0.0916,-0.322086 0.0463,-0.117906 0.10319,-0.216344 0.16244,-0.307553 0.26008,-0.357141 0.53815,-0.670338 0.83109,-0.907683 0.11618,-0.08588 0.23171,-0.175081 0.34877,-0.256339 0.13166,-0.08929 0.26492,-0.168775 0.39886,-0.243327 0.14584,-0.0827 0.29442,-0.143739 0.44303,-0.203041 0.15668,-0.06157 0.31395,-0.116811 0.4714,-0.170087 0.16932,-0.05836 0.33932,-0.106829 0.51003,-0.145889 0.18214,-0.03999 0.36459,-0.07462 0.54706,-0.108098 0.19635,-0.0358 0.39289,-0.06712 0.58947,-0.09717 0.20825,-0.02508 0.41675,-0.04177 0.6252,-0.05869 0.22085,-0.0217 0.44186,-0.03042 0.66296,-0.03565 0.22689,-0.0088 0.45372,-0.0054 0.68059,0.0013 0.2277,0.0028 0.45518,0.02289 0.68266,0.04084 0.23024,0.0173 0.46042,0.03466 0.69044,0.06112 0.22886,0.02574 0.45756,0.05779 0.68659,0.07734 0.22133,0.01799 0.44269,0.03101 0.6642,0.03478 0.21329,0.0026 0.42657,0.0034 0.63987,0.0044 0.21486,0.0011 0.42972,0.0019 0.64459,0.0029 0.22215,-5.29e-4 0.4443,0.0052 0.66644,-7.93e-4 0.2218,-0.0056 0.44348,-0.01818 0.66483,-0.04635 0.20826,-0.0226 0.41494,-0.07582 0.62084,-0.13964 0.18348,-0.06006 0.36624,-0.130638 0.54744,-0.213778 0.15778,-0.07257 0.31324,-0.164218 0.4678,-0.26004 0.13002,-0.08335 0.256,-0.188428 0.38072,-0.298678 -0.15863,0.221318 0.37748,-0.401769 0.21442,-0.219581 -0.40493,0.452447 -0.51505,0.603717 -0.31855,0.342846 0.0957,-0.126007 0.18404,-0.271186 0.26941,-0.423257 0.0685,-0.121002 0.12994,-0.256434 0.18813,-0.396857 0.0508,-0.122126 0.0928,-0.256778 0.13237,-0.393922 0.0347,-0.127563 0.0641,-0.260281 0.0887,-0.396676 0.0237,-0.134829 0.0356,-0.274781 0.0423,-0.416452 0.004,-0.09857 0.003,-0.04966 0.004,-0.146722 0,0 0.50883,-0.512135 0.50883,-0.512135 v 0 c 0,0.102216 0,0.05128 -0.003,0.152815 -0.005,0.14895 -0.0136,0.297058 -0.0365,0.440111 -0.0214,0.143724 -0.0513,0.280826 -0.0844,0.415422 -0.0371,0.143727 -0.0792,0.283144 -0.1285,0.411737 -0.056,0.147261 -0.11747,0.286488 -0.18457,0.414332 -0.0852,0.155059 -0.17096,0.308996 -0.26686,0.438073 -0.27533,0.380466 -0.56715,0.720471 -0.87334,0.993047 -0.126,0.107418 -0.25327,0.209315 -0.38462,0.288391 -0.15545,0.09364 -0.31164,0.183462 -0.47036,0.252891 -0.1822,0.07918 -0.36533,0.150908 -0.54969,0.207312 -0.20693,0.06152 -0.4148,0.109249 -0.62385,0.13122 -0.22196,0.02495 -0.44416,0.03699 -0.66645,0.04182 -0.22232,0.0038 -0.44462,-2.17e-4 -0.66694,-2.35e-4 -0.21487,-7.94e-4 -0.42975,-0.0019 -0.64462,-0.0029 -0.21337,-0.0011 -0.42675,-0.0019 -0.6401,-0.0052 -0.22188,-0.0052 -0.44364,-0.01955 -0.66534,-0.0381 -0.2291,-0.02199 -0.45795,-0.05258 -0.68695,-0.07838 -0.22983,-0.02537 -0.45985,-0.04149 -0.68985,-0.05954 -0.22721,-0.01775 -0.45443,-0.03576 -0.68184,-0.0385 -0.22658,-0.0061 -0.45313,-0.007 -0.6797,0.0013 -0.2208,0.0059 -0.44148,0.01736 -0.66205,0.03833 -0.2081,0.01723 -0.41623,0.03368 -0.62403,0.06206 -0.19643,0.0305 -0.39283,0.0623 -0.58902,0.09869 -0.18224,0.03399 -0.36445,0.0687 -0.54628,0.110466 -0.1701,0.0412 -0.33948,0.09238 -0.5083,0.150709 -0.15712,0.0541 -0.3141,0.109866 -0.47038,0.172964 -0.14788,0.06088 -0.29548,0.125163 -0.44044,0.209933 -0.13325,0.07647 -0.26594,0.157152 -0.3967,0.24919 -0.11628,0.08344 -0.23203,0.170101 -0.34677,0.261554 -0.61069,0.529574 0.50691,-0.592654 0.1467,-0.211259 -0.0605,0.08228 -0.11799,0.172873 -0.16809,0.279789 -0.0392,0.09037 -0.0741,0.184396 -0.0974,0.295544 -0.14495,0.616956 -0.079,0.603536 -0.60671,1.122852 -0.0276,-0.02296 -0.0548,-0.04729 -0.0775,-0.08739 -0.0382,-0.0646 -0.0745,-0.133649 -0.10598,-0.211614 -0.0504,-0.127154 -0.0995,-0.256233 -0.14315,-0.393089 -0.0652,-0.189153 -0.12696,-0.382926 -0.191,-0.573646 -0.0716,-0.201864 -0.14614,-0.400986 -0.23371,-0.577035 -0.088,-0.177374 -0.17647,-0.354751 -0.27398,-0.511926 -0.0977,-0.154792 -0.19867,-0.301861 -0.30947,-0.418351 -0.11398,-0.121653 -0.22984,-0.237064 -0.3513,-0.326867 -0.13013,-0.09119 -0.26311,-0.167359 -0.39875,-0.218889 -0.15353,-0.0527 -0.30802,-0.09613 -0.46375,-0.11262 -0.17632,-0.02199 -0.35306,-0.03448 -0.52964,-0.01482 -0.18852,0.01781 -0.37687,0.04388 -0.56442,0.08656 -0.18973,0.04317 -0.37896,0.09436 -0.56804,0.147398 -0.18081,0.05168 -0.3615,0.105183 -0.54172,0.164726 -0.16994,0.05659 -0.33973,0.115159 -0.50881,0.181376 -0.15754,0.06228 -0.31479,0.127448 -0.47176,0.195303 -0.14915,0.06007 -0.29871,0.11634 -0.44711,0.18356 -0.13821,0.06238 -0.27581,0.13003 -0.4143,0.189942 -0.13273,0.0541 -0.2656,0.107492 -0.39991,0.144055 -0.12748,0.03283 -0.25536,0.05915 -0.38338,0.08242 -0.12296,0.01746 -0.24628,0.02482 -0.36946,0.01032 -0.1175,-0.01246 -0.23447,-0.0359 -0.35043,-0.07646 -0.113,-0.03679 -0.22577,-0.07866 -0.3348,-0.149773 -0.10564,-0.06748 -0.20969,-0.144597 -0.3113,-0.23337 -0.099,-0.09108 -0.19657,-0.190029 -0.28748,-0.310618 -0.0885,-0.119637 -0.17488,-0.245812 -0.25291,-0.392018 -0.0765,-0.139901 -0.15049,-0.285265 -0.21785,-0.442806 -0.0669,-0.156099 -0.13142,-0.316416 -0.18969,-0.485762 -0.0565,-0.167852 -0.11183,-0.337212 -0.16467,-0.509749 -0.0482,-0.163941 -0.095,-0.329359 -0.14071,-0.496091 -0.0422,-0.162039 -0.0856,-0.323017 -0.12447,-0.488394 -0.0373,-0.154221 -0.0743,-0.308907 -0.10317,-0.470387 -0.0284,-0.152863 -0.0547,-0.307793 -0.0761,-0.465045 -0.0213,-0.160631 -0.0378,-0.323768 -0.0557,-0.486021 0,0 0.50311,-0.532556 0.50311,-0.532556 z"
       inkscape:connector-curvature="0"
       inkscape:export-xdpi="52.709999"
       inkscape:export-ydpi="52.709999" />
    <text
       xml:space="preserve"
       style="font-style:normal;font-weight:normal;font-size:25.39999962px;line-height:1.25;font-family:sans-serif;letter-spacing:0px;word-spacing:0px;fill:#000000;fill-opacity:1;stroke:none;stroke-width:0.26458332"
       x="-280.28864"
       y="57.791862"
       id="text870-6-3"
       inkscape:export-xdpi="52.709999"
       inkscape:export-ydpi="52.709999"><tspan
         sodipodi:role="line"
         id="tspan868-7-5"
         x="-280.28864"
         y="57.791862"
         style="font-size:11.28888893px;stroke-width:0.26458332">5%</tspan></text>
    <path
       style="opacity:1;fill:#c8b7b7;fill-opacity:1;stroke:none;stroke-width:0.29083169;stroke-linejoin:round;stroke-miterlimit:4;stroke-dasharray:none;stroke-dashoffset:0;stroke-opacity:1"
       id="path891-6"
       d="m -283.09444,63.390554 c 0.0317,0.160073 0.0635,0.320241 0.10098,0.478917 0.0377,0.15426 0.0862,0.305517 0.13704,0.455366 0.0523,0.15815 0.11933,0.309803 0.18743,0.460754 0.0721,0.16438 0.15236,0.324426 0.23077,0.485452 0.0844,0.165121 0.1709,0.32884 0.25994,0.491156 0.0976,0.170532 0.1997,0.337892 0.30407,0.50378 0.10692,0.165312 0.22483,0.322178 0.34769,0.474287 0.12354,0.153564 0.25923,0.295275 0.39982,0.430964 0.14258,0.142045 0.3014,0.263009 0.4637,0.377784 0.16727,0.114037 0.34518,0.209731 0.52688,0.294697 0.18764,0.08472 0.37903,0.15879 0.57393,0.22208 0.20077,0.06698 0.40869,0.102206 0.6161,0.136184 0.21397,0.04074 0.43042,0.05701 0.64726,0.06626 0.22739,0.0114 0.45512,0.0011 0.68149,-0.02223 0.23805,-0.02463 0.47557,-0.05257 0.71254,-0.08672 0.24903,-0.04051 0.49525,-0.0967 0.74194,-0.150366 0.25722,-0.06471 0.51411,-0.130662 0.77213,-0.191603 0.27733,-0.06688 0.55753,-0.119015 0.8356,-0.182033 0.29282,-0.06944 0.58681,-0.133012 0.88122,-0.194339 0.31632,-0.06479 0.6338,-0.122865 0.95164,-0.178555 0.33686,-0.05888 0.67466,-0.111326 1.01259,-0.162639 0.35369,-0.05174 0.70736,-0.104378 1.06239,-0.144404 0.35159,-0.0407 0.70458,-0.06611 1.05792,-0.08051 0.33211,-0.01807 0.66434,2.64e-4 0.99563,0.02468 0.29314,0.01947 0.5843,0.06542 0.87282,0.12282 0.25666,0.05837 0.50895,0.137073 0.75475,0.234685 0.22949,0.09554 0.44845,0.21548 0.66452,0.340773 0.21091,0.121769 0.40185,0.275725 0.58807,0.435465 0.18378,0.161578 0.35106,0.342598 0.51801,0.523221 0.1664,0.181502 0.30866,0.385919 0.44524,0.593072 0.11969,0.191142 0.23509,0.38536 0.35745,0.574561 0.0802,0.134697 0.17065,0.261654 0.2639,0.386246 0.0555,0.07092 0.11836,0.133888 0.18633,0.190858 0.0505,0.03129 0.0544,0.03519 0.0843,-0.0051 -1.104,0.731081 -0.87638,0.534649 -0.67829,0.04281 0.0455,-0.114162 0.1011,-0.222842 0.17095,-0.322085 0.0864,-0.117906 0.19263,-0.216344 0.30324,-0.307554 0.48551,-0.35714 1.00458,-0.670338 1.55143,-0.907682 0.21688,-0.08588 0.43254,-0.175081 0.65107,-0.256339 0.24577,-0.08929 0.49453,-0.168775 0.74457,-0.243327 0.27224,-0.0827 0.54961,-0.14374 0.82702,-0.203041 0.29248,-0.06157 0.58606,-0.116811 0.87998,-0.170088 0.31607,-0.05836 0.63343,-0.106828 0.95209,-0.145888 0.34001,-0.03999 0.6806,-0.07462 1.02123,-0.108098 0.36653,-0.0358 0.73342,-0.06712 1.10039,-0.09717 0.38875,-0.02508 0.77796,-0.04177 1.16709,-0.05869 0.41227,-0.0217 0.82484,-0.03042 1.23757,-0.03565 0.42354,-0.0088 0.84698,-0.0054 1.27049,0.0013 0.42506,0.0028 0.8497,0.02289 1.27435,0.04084 0.42979,0.0173 0.85949,0.03466 1.28888,0.06112 0.42722,0.02574 0.85414,0.05779 1.28168,0.07734 0.41317,0.01799 0.82639,0.03101 1.23989,0.03478 0.39815,0.0026 0.7963,0.0034 1.19448,0.0044 0.40109,0.0011 0.80217,0.0019 1.20328,0.0029 0.41469,-5.29e-4 0.8294,0.0052 1.24407,-7.94e-4 0.41404,-0.0056 0.82786,-0.01818 1.24107,-0.04635 0.38876,-0.0226 0.77458,-0.07582 1.15895,-0.13964 0.34251,-0.06006 0.68367,-0.130638 1.02192,-0.213778 0.29455,-0.07257 0.58474,-0.164218 0.87326,-0.26004 0.24273,-0.08335 0.47789,-0.188428 0.71071,-0.298678 -0.29612,0.221319 0.70466,-0.401769 0.40027,-0.21958 -0.7559,0.452446 -0.96147,0.603716 -0.59464,0.342845 0.17874,-0.126006 0.34354,-0.271185 0.50291,-0.423257 0.12796,-0.121002 0.24257,-0.256434 0.3512,-0.396857 0.0949,-0.122126 0.17319,-0.256778 0.2471,-0.393922 0.0648,-0.127563 0.11965,-0.260281 0.16555,-0.396676 0.0443,-0.134829 0.0665,-0.274781 0.079,-0.416452 0.007,-0.09857 0.005,-0.04966 0.008,-0.146722 0,0 0.94985,-0.512135 0.94985,-0.512135 v 0 c 0,0.102216 0,0.05128 -0.005,0.152815 -0.0102,0.14895 -0.0253,0.297058 -0.0681,0.440111 -0.04,0.143724 -0.0958,0.280826 -0.15755,0.415422 -0.0692,0.143727 -0.14791,0.283144 -0.23989,0.411737 -0.10461,0.147261 -0.21927,0.286488 -0.34454,0.414332 -0.15899,0.155059 -0.31913,0.308996 -0.49816,0.438073 -0.51396,0.380466 -1.05872,0.720471 -1.6303,0.993047 -0.23521,0.107419 -0.47279,0.209315 -0.71798,0.288391 -0.29019,0.09364 -0.58176,0.183462 -0.87804,0.252891 -0.34012,0.07918 -0.68198,0.150908 -1.02614,0.207312 -0.38629,0.06152 -0.77432,0.109249 -1.16457,0.13122 -0.41434,0.02495 -0.82912,0.03699 -1.24409,0.04182 -0.41501,0.0038 -0.82999,-2.16e-4 -1.245,-2.34e-4 -0.40111,-7.94e-4 -0.80223,-0.0019 -1.20334,-0.0029 -0.3983,-0.0011 -0.79663,-0.0019 -1.1949,-0.0052 -0.4142,-0.0052 -0.82816,-0.01955 -1.24203,-0.0381 -0.42766,-0.02199 -0.85486,-0.05258 -1.28235,-0.07838 -0.42904,-0.02537 -0.85842,-0.04149 -1.28778,-0.05954 -0.42414,-0.01775 -0.8483,-0.03576 -1.27281,-0.0385 -0.42297,-0.0061 -0.84588,-0.007 -1.26883,0.0013 -0.41217,0.0059 -0.82413,0.01736 -1.23588,0.03833 -0.38846,0.01723 -0.77699,0.03368 -1.1649,0.06206 -0.36669,0.0305 -0.73331,0.0623 -1.09956,0.09869 -0.34019,0.03399 -0.68033,0.0687 -1.01975,0.110465 -0.31753,0.0412 -0.63373,0.09238 -0.94888,0.15071 -0.2933,0.0541 -0.58634,0.109865 -0.87807,0.172963 -0.27606,0.06088 -0.55159,0.125163 -0.82218,0.209933 -0.24876,0.07647 -0.49645,0.157152 -0.74055,0.24919 -0.21706,0.08344 -0.43314,0.170101 -0.64732,0.261555 -1.14,0.529573 0.94627,-0.592655 0.27385,-0.21126 -0.11294,0.08228 -0.22026,0.172874 -0.31378,0.27979 -0.0732,0.09037 -0.13841,0.184395 -0.18192,0.295543 -0.27059,0.616956 -0.1475,0.603536 -1.13257,1.122852 -0.0515,-0.02296 -0.10224,-0.04729 -0.14471,-0.08739 -0.0713,-0.0646 -0.13901,-0.133649 -0.19784,-0.211613 -0.094,-0.127155 -0.18582,-0.256234 -0.26723,-0.393089 -0.12174,-0.189154 -0.237,-0.382927 -0.35655,-0.573647 -0.13365,-0.201864 -0.2728,-0.400986 -0.43627,-0.577035 -0.16434,-0.177374 -0.32942,-0.354751 -0.51145,-0.511926 -0.18246,-0.154792 -0.37086,-0.301861 -0.5777,-0.41835 -0.21278,-0.121654 -0.42906,-0.237064 -0.65579,-0.326868 -0.24291,-0.09119 -0.49115,-0.167359 -0.74436,-0.218889 -0.2866,-0.0527 -0.57499,-0.09613 -0.86571,-0.11262 -0.32914,-0.02199 -0.65906,-0.03448 -0.98869,-0.01482 -0.35192,0.01781 -0.70352,0.04388 -1.05363,0.08656 -0.35417,0.04317 -0.70742,0.09436 -1.06038,0.147399 -0.33753,0.05168 -0.67484,0.105183 -1.01125,0.164725 -0.31724,0.05659 -0.6342,0.11516 -0.94983,0.181377 -0.29408,0.06228 -0.58762,0.127447 -0.88065,0.195302 -0.27842,0.06007 -0.55761,0.11634 -0.83465,0.18356 -0.258,0.06238 -0.51486,0.13003 -0.77339,0.189942 -0.24777,0.0541 -0.4958,0.107492 -0.74653,0.144055 -0.23796,0.03283 -0.47668,0.05915 -0.71566,0.08242 -0.22954,0.01746 -0.45975,0.02482 -0.6897,0.01032 -0.21933,-0.01246 -0.43769,-0.0359 -0.65415,-0.07646 -0.21095,-0.03679 -0.42146,-0.07866 -0.62499,-0.149772 -0.19721,-0.06748 -0.39143,-0.144597 -0.58112,-0.23337 -0.18487,-0.09108 -0.36695,-0.19003 -0.53664,-0.310619 -0.16524,-0.119637 -0.32646,-0.245812 -0.47213,-0.392017 -0.14273,-0.139902 -0.28093,-0.285266 -0.40666,-0.442807 -0.12487,-0.156098 -0.24534,-0.316416 -0.35411,-0.485762 -0.10547,-0.167852 -0.20875,-0.337212 -0.30739,-0.509749 -0.0899,-0.163941 -0.17732,-0.329359 -0.26268,-0.496091 -0.0788,-0.162039 -0.15977,-0.323017 -0.23235,-0.488394 -0.0696,-0.154221 -0.13873,-0.308907 -0.1926,-0.470387 -0.053,-0.152863 -0.10203,-0.307793 -0.1421,-0.465045 -0.0398,-0.160631 -0.0705,-0.323768 -0.10391,-0.486021 0,0 0.93918,-0.532556 0.93918,-0.532556 z"
       inkscape:connector-curvature="0"
       inkscape:export-xdpi="52.709999"
       inkscape:export-ydpi="52.709999" />
    <text
       xml:space="preserve"
       style="font-style:normal;font-weight:normal;font-size:25.39999962px;line-height:1.25;font-family:sans-serif;letter-spacing:0px;word-spacing:0px;fill:#000000;fill-opacity:1;stroke:none;stroke-width:0.26458332"
       x="-273.28662"
       y="84.150978"
       id="text870-6-3-2"
       inkscape:export-xdpi="52.709999"
       inkscape:export-ydpi="52.709999"><tspan
         sodipodi:role="line"
         id="tspan868-7-5-9"
         x="-273.28662"
         y="84.150978"
         style="font-size:11.28888893px;stroke-width:0.26458332">10%</tspan></text>
    <text
       xml:space="preserve"
       style="font-style:normal;font-weight:normal;font-size:16.25714302px;line-height:1.25;font-family:sans-serif;letter-spacing:0px;word-spacing:0px;fill:#000000;fill-opacity:1;stroke:none;stroke-width:0.16934523"
       x="-247.73065"
       y="100.45238"
       id="text979"
       inkscape:export-xdpi="52.709999"
       inkscape:export-ydpi="52.709999"><tspan
         sodipodi:role="line"
         id="tspan977"
         x="-247.73065"
         y="100.45238"
         style="stroke-width:0.16934523">...</tspan></text>
    <path
       style="opacity:1;fill:#c8b7b7;fill-opacity:1;stroke:none;stroke-width:0.30000001;stroke-linejoin:round;stroke-miterlimit:4;stroke-dasharray:none;stroke-dashoffset:0;stroke-opacity:1"
       id="path981"
       d="m -278.81975,112.38703 c -0.003,0.15852 0.0111,0.31664 0.0214,0.47466 0.0124,0.18714 0.0227,0.3744 0.0323,0.5617 0.0154,0.21597 0.0375,0.43142 0.0569,0.64708 0.0188,0.23444 0.0515,0.46751 0.0805,0.70085 0.0277,0.2351 0.0947,0.46288 0.16983,0.68655 0.0773,0.22121 0.18283,0.43036 0.29372,0.63621 0.12422,0.21254 0.26093,0.41807 0.4051,0.61757 0.1546,0.21464 0.34404,0.39912 0.53073,0.58503 0.19587,0.20367 0.4096,0.38808 0.63111,0.563 0.24371,0.1901 0.50498,0.35541 0.77023,0.51337 0.29324,0.17283 0.59854,0.32352 0.90654,0.46783 0.33732,0.15668 0.68294,0.29416 1.0305,0.42609 0.37666,0.14193 0.75917,0.26735 1.1431,0.38792 0.41199,0.12855 0.82815,0.24292 1.24537,0.35305 0.44381,0.11647 0.89067,0.22072 1.33832,0.32124 0.47334,0.11234 0.94789,0.21945 1.42346,0.32192 0.49826,0.10692 0.99859,0.20375 1.49947,0.29735 0.52189,0.0971 1.04537,0.18523 1.56927,0.27053 0.53742,0.0862 1.07333,0.18126 1.61031,0.27026 0.55028,0.0895 1.10151,0.17295 1.65158,0.26378 0.55966,0.0935 1.12029,0.18074 1.68138,0.26502 0.57687,0.0863 1.15478,0.16547 1.733,0.24219 0.59153,0.0768 1.18364,0.14863 1.77479,0.2283 0.59735,0.0816 1.19532,0.15839 1.79362,0.23263 0.61114,0.0756 1.223,0.14519 1.83507,0.21275 0.62433,0.0687 1.24924,0.13199 1.87432,0.19349 0.63634,0.0624 1.27313,0.11998 1.91006,0.17594 0.64723,0.0567 1.29483,0.10907 1.94253,0.15999 0.65239,0.0547 1.30566,0.096 1.95928,0.13246 0.64709,0.0363 1.29504,0.0551 1.94278,0.0759 0.65369,0.0207 1.30743,0.0397 1.96117,0.0582 0.65665,0.0227 1.31367,0.0282 1.97063,0.0343 0.66061,0.006 1.32122,0.0108 1.98184,0.0156 0.66915,0.005 1.33831,0.009 2.00746,0.0139 0.67097,0.009 1.34195,0.001 2.01289,-0.006 0.67342,-0.007 1.34685,-0.0141 2.02027,-0.0208 0.6808,-0.007 1.3616,-0.0131 2.04241,-0.0192 0.68761,-0.006 1.37523,-0.0119 2.06286,-0.0175 0.69294,-0.004 1.38587,-0.0141 2.07883,-0.0126 0.68917,0.004 1.37832,0.0108 2.06747,0.017 0.69418,0.006 1.38836,0.0122 2.08255,0.0179 0.69977,0.006 1.39954,0.0111 2.09931,0.0163 0.70487,0.005 1.40974,0.0101 2.11461,0.0149 0.70951,0.005 1.41901,0.009 2.12852,0.0135 0.70948,0.008 1.41891,0.006 2.12838,-8e-4 0.69791,-0.007 1.39582,-0.0237 2.09333,-0.0485 0.68602,-0.0229 1.37142,-0.0584 2.05672,-0.0965 0.68403,-0.0386 1.36816,-0.0753 2.05235,-0.11097 0.68922,-0.0373 1.3789,-0.0656 2.06799,-0.10492 0.67449,-0.0366 1.34811,-0.0857 2.0216,-0.13704 0.66972,-0.0516 1.33965,-0.10029 2.00969,-0.14755 0.67722,-0.0476 1.35468,-0.0918 2.03222,-0.13482 0.68352,-0.0419 1.36691,-0.0865 2.05094,-0.11932 0.67638,-0.0339 1.35326,-0.0524 2.03028,-0.067 0.66241,-0.0116 1.32482,-0.005 1.98719,0.005 0.65259,0.0123 1.30457,0.0417 1.95646,0.0728 0.65109,0.0321 1.30191,0.0719 1.95205,0.11962 0.63529,0.0425 1.26792,0.11313 1.89939,0.19323 0.60455,0.0784 1.20379,0.18982 1.80139,0.30891 0.56862,0.11278 1.13064,0.25327 1.68671,0.41653 0.51704,0.15562 1.02259,0.34536 1.52021,0.55418 0.46537,0.19854 0.91411,0.43275 1.35417,0.68169 0.41598,0.23807 0.81168,0.5088 1.19764,0.79234 0.37054,0.27457 0.71785,0.57813 1.05485,0.89242 0.33055,0.31141 0.63627,0.64754 0.93678,0.9876 0.27423,0.32037 0.55321,0.63624 0.84724,0.93859 0.23708,0.24381 0.49537,0.46479 0.76706,0.66877 0.21495,0.1597 0.45017,0.28835 0.68889,0.40831 0.18465,0.0862 0.37539,0.15929 0.57385,0.20606 0.14122,0.0392 0.28721,0.044 0.43263,0.0408 0.11194,-0.006 0.21211,-0.0464 0.30757,-0.10217 -1.39707,0.84861 -0.77316,0.44816 -0.52207,0.0641 0.0837,-0.13749 0.16946,-0.27371 0.25818,-0.40805 0.10052,-0.15691 0.20618,-0.31027 0.32284,-0.4556 0.13704,-0.16737 0.30133,-0.30804 0.47122,-0.44059 0.55509,-0.39405 1.15475,-0.72802 1.77632,-1.00546 0.251,-0.10821 0.5121,-0.1915 0.77572,-0.26277 0.27391,-0.0751 0.55289,-0.12698 0.8326,-0.17455 0.30112,-0.0423 0.60322,-0.0785 0.90631,-0.10301 0.33084,-0.0288 0.66257,-0.0391 0.99442,-0.0471 0.36801,5.3e-4 0.73615,10e-4 1.10401,0.0127 0.39247,0.0158 0.78519,0.0265 1.1774,0.0483 0.41479,0.0252 0.82957,0.0507 1.24444,0.0745 0.44127,0.021 0.8819,0.0511 1.32245,0.0834 0.46193,0.0344 0.92406,0.0659 1.38627,0.0962 0.48152,0.0306 0.96216,0.0737 1.44309,0.11232 0.49873,0.0357 0.99672,0.0794 1.49459,0.12535 0.51397,0.0478 1.02827,0.092 1.5427,0.13449 0.53479,0.0455 1.07042,0.0805 1.60517,0.12638 0.54547,0.0491 1.09103,0.0973 1.63677,0.14339 0.56337,0.0474 1.12707,0.0908 1.69087,0.13274 0.57894,0.0416 1.15797,0.081 1.73644,0.12877 0.58608,0.0495 1.17235,0.0967 1.75875,0.14214 0.60091,0.0464 1.20209,0.0891 1.80336,0.13046 0.61499,0.0422 1.23021,0.081 1.84549,0.11866 0.62781,0.0383 1.25579,0.0736 1.88383,0.1079 0.63946,0.0348 1.27905,0.0669 1.91869,0.0981 0.65004,0.0316 1.3002,0.0608 1.95039,0.0892 0.65966,0.0287 1.31942,0.0553 1.9792,0.0811 0.66841,0.0261 1.33689,0.0503 2.0054,0.0738 0.67636,0.0237 1.35278,0.0457 2.02922,0.0671 0.68388,0.0203 1.36771,0.0404 2.0513,0.0689 0.69019,0.0299 1.3804,0.0594 2.07066,0.0878 0.69608,0.0286 1.39225,0.0552 2.08843,0.0811 0.70152,0.026 1.40311,0.0502 2.10472,0.0737 0.70646,0.0236 1.41298,0.0456 2.11952,0.067 0.71096,0.0215 1.42196,0.0415 2.13298,0.061 0.7053,0.0133 1.41072,0.0193 2.11611,0.0261 0.70826,0.007 1.41652,0.0129 2.12478,0.0188 0.71256,0.006 1.42512,0.0116 2.13769,0.0171 0.71649,0.005 1.43299,0.0106 2.14949,0.0155 0.72008,0.005 1.44016,0.01 2.16024,0.0141 0.72079,0.006 1.44153,0.01 2.16233,0.005 0.71554,-0.006 1.43108,-0.0137 2.14661,-0.0207 0.71103,-0.006 1.42184,-0.0265 2.13265,-0.0439 0.71146,-0.0175 1.42294,-0.0341 2.13444,-0.0502 0.71537,-0.0223 1.43059,-0.0496 2.145847,-0.0752 0.7191,-0.0257 1.43826,-0.0498 2.15743,-0.0732 0.714901,-0.0222 1.4293,-0.0582 2.143791,-0.0905 0.714807,-0.0386 1.429383,-0.0813 2.14408,-0.1219 0.714688,-0.0364 1.428824,-0.0812 2.142829,-0.12892 0.710991,-0.048 1.422141,-0.0936 2.133372,-0.13792 0.714831,-0.0444 1.429843,-0.0858 2.144917,-0.12604 0.718568,-0.0404 1.437288,-0.078 2.156057,-0.11462 0.721972,-0.0367 1.444067,-0.0709 2.166202,-0.10422 0.721231,-0.0291 1.44198,-0.0669 2.16262,-0.10778 0.717023,-0.0412 1.434158,-0.0805 2.151351,-0.11864 0.709721,-0.0456 1.419664,-0.0885 2.128898,-0.14123 0.697452,-0.0496 1.393468,-0.1165 2.089729,-0.18019 0.688555,-0.0621 1.375953,-0.13642 2.063806,-0.20582 0.679678,-0.077 1.359942,-0.14901 2.039096,-0.23049 0.671973,-0.0786 1.342705,-0.16675 2.013313,-0.25609 0.651785,-0.0904 1.301604,-0.19451 1.949838,-0.30747 0.618948,-0.11437 1.23524,-0.2429 1.849425,-0.38046 0.59269,-0.13392 1.185386,-0.26783 1.779045,-0.39742 0.574426,-0.12546 1.145172,-0.2653 1.713701,-0.41496 0.545258,-0.13929 1.086583,-0.29255 1.625473,-0.45456 0.501406,-0.15651 0.996526,-0.33249 1.487815,-0.51812 0.443405,-0.16303 0.879335,-0.34439 1.309185,-0.54014 0.385313,-0.17212 0.757576,-0.37157 1.124434,-0.57967 -1.639514,0.97154 -0.519903,0.296 -0.157117,0.054 0,0 1.053616,-0.41304 1.053616,-0.41304 v 0 c -0.570731,0.39099 -1.171718,0.73484 -1.776688,1.07003 -0.369382,0.20489 -0.743448,0.40177 -1.130422,0.57178 -0.43172,0.19287 -0.869651,0.37083 -1.31345,0.53416 -0.492839,0.18359 -0.98915,0.35856 -1.492334,0.51188 -0.5397,0.16076 -1.082233,0.3113 -1.627693,0.45137 -0.569341,0.14876 -1.141513,0.28546 -1.716405,0.4112 -0.593437,0.13022 -1.186008,0.2643 -1.778749,0.39764 -0.615365,0.13556 -1.232246,0.26486 -1.852533,0.37607 -0.649198,0.11109 -1.299602,0.21548 -1.952321,0.30387 -0.670864,0.0893 -1.342038,0.17597 -2.014233,0.25478 -0.679651,0.0799 -1.359995,0.15408 -2.040231,0.22887 -0.688004,0.0696 -1.375616,0.14351 -2.064417,0.20494 -0.696595,0.0638 -1.393057,0.12944 -2.090891,0.1785 -0.709726,0.0512 -1.419936,0.0958 -2.130168,0.13938 -0.717121,0.0383 -1.434179,0.0778 -2.151145,0.11894 -0.720852,0.0406 -1.441889,0.0768 -2.163273,0.10683 -0.722032,0.0335 -1.444024,0.0678 -2.165895,0.10466 -0.718653,0.0368 -1.437261,0.0746 -2.155716,0.11512 -0.714947,0.0405 -1.429832,0.082 -2.144535,0.12659 -0.711139,0.0445 -1.422191,0.0903 -2.133103,0.13832 -0.714205,0.0475 -1.428633,0.0907 -2.143453,0.12801 -0.71493,0.0407 -1.429729,0.0839 -2.144866,0.12087 -0.714745,0.0324 -1.429419,0.0679 -2.144605,0.0894 -0.71911,0.0235 -1.4382,0.0477 -2.157227,0.0735 -0.71555,0.0256 -1.43104,0.0533 -2.14675,0.074 -0.71146,0.0162 -1.42291,0.0328 -2.13433,0.0504 -0.71112,0.0174 -1.42225,0.0374 -2.13359,0.0426 -0.71561,0.007 -1.43122,0.0146 -2.14684,0.0203 -0.72107,0.004 -1.4421,-0.001 -2.16315,-0.006 -0.7201,-0.005 -1.4402,-0.009 -2.1603,-0.0142 -0.71652,-0.005 -1.43304,-0.0101 -2.14956,-0.0156 -0.71259,-0.005 -1.42518,-0.0111 -2.13776,-0.0171 -0.7083,-0.006 -1.41659,-0.0122 -2.12489,-0.0189 -0.70577,-0.007 -1.41159,-0.0126 -2.11724,-0.0277 -0.71109,-0.0196 -1.42217,-0.0396 -2.1332,-0.0612 -0.70662,-0.0215 -1.41322,-0.0436 -2.11976,-0.0673 -0.7017,-0.0237 -1.40337,-0.0479 -2.10498,-0.074 -0.69628,-0.026 -1.39254,-0.0527 -2.08872,-0.0814 -0.69027,-0.0285 -1.38048,-0.0582 -2.0707,-0.0877 -0.6834,-0.0279 -1.36706,-0.047 -2.0507,-0.068 -0.67653,-0.0215 -1.35304,-0.0436 -2.02949,-0.0674 -0.66861,-0.0236 -1.3372,-0.0479 -2.00571,-0.0741 -0.6599,-0.026 -1.31977,-0.0527 -1.97954,-0.0815 -0.65032,-0.0285 -1.3006,-0.0579 -1.95077,-0.0897 -0.63979,-0.0314 -1.27953,-0.0636 -1.91913,-0.0986 -0.62821,-0.0345 -1.25636,-0.07 -1.88433,-0.10847 -0.61547,-0.0379 -1.23088,-0.0769 -1.84606,-0.11931 -0.60148,-0.0416 -1.20288,-0.0845 -1.80399,-0.13121 -0.58652,-0.0457 -1.17288,-0.0932 -1.7591,-0.14249 -0.57835,-0.0471 -1.15731,-0.0856 -1.73601,-0.12806 -0.56405,-0.0423 -1.12799,-0.0859 -1.69161,-0.13359 -0.54573,-0.0463 -1.09125,-0.095 -1.63681,-0.1433 -0.53488,-0.0442 -1.07037,-0.0808 -1.60516,-0.1262 -0.51466,-0.0428 -1.02918,-0.0874 -1.54339,-0.13525 -0.49763,-0.0457 -0.99554,-0.0874 -1.49391,-0.12424 -0.48059,-0.0387 -0.96095,-0.0812 -1.44221,-0.11093 -0.46241,-0.0305 -0.92473,-0.0624 -1.38688,-0.0968 -0.44024,-0.032 -0.88069,-0.0597 -1.32155,-0.082 -0.41477,-0.0241 -0.82943,-0.05 -1.24421,-0.0739 -0.39177,-0.0192 -0.78385,-0.0322 -1.17585,-0.0459 -0.36678,-0.009 -0.73378,-0.0118 -1.10064,-0.008 -0.33059,0.009 -0.661,0.0229 -0.99047,0.0529 -0.30114,0.0283 -0.60198,0.0625 -0.90062,0.11083 -0.27772,0.0496 -0.55428,0.10597 -0.82567,0.18388 -0.26017,0.0767 -0.5184,0.16194 -0.7648,0.27632 -1.114,0.52207 1.16403,-0.71604 0.16236,-0.11747 -0.1715,0.12538 -0.33847,0.25805 -0.4808,0.41677 -0.12133,0.1388 -0.22908,0.28778 -0.32798,0.44336 -0.0874,0.13442 -0.17721,0.26713 -0.25943,0.40483 -0.31839,0.55465 -0.76272,0.77199 -1.40009,1.10082 -0.10813,0.0426 -0.2218,0.0647 -0.33849,0.0613 -0.15183,-0.004 -0.30256,-0.0221 -0.4489,-0.0643 -0.20233,-0.0572 -0.39892,-0.13325 -0.58732,-0.22678 -0.24248,-0.12574 -0.4815,-0.25937 -0.69934,-0.42528 -0.27434,-0.20949 -0.53563,-0.43532 -0.77577,-0.68371 -0.2943,-0.30438 -0.57392,-0.62191 -0.8496,-0.9432 -0.29854,-0.33704 -0.6022,-0.67019 -0.93106,-0.97822 -0.33469,-0.31057 -0.67957,-0.61051 -1.04772,-0.88122 -0.38361,-0.27976 -0.77673,-0.54696 -1.19023,-0.78107 -0.43773,-0.24519 -0.8838,-0.47614 -1.34668,-0.67068 -0.4954,-0.20509 -0.99843,-0.39184 -1.51292,-0.54385 -0.55441,-0.15984 -1.11462,-0.29729 -1.68093,-0.40853 -0.59592,-0.11775 -1.19383,-0.22606 -1.79667,-0.30248 -0.63026,-0.0788 -1.26188,-0.14616 -1.89579,-0.18841 -0.64966,-0.0461 -1.29982,-0.0865 -1.95039,-0.11737 -0.65113,-0.0307 -1.30241,-0.0588 -1.95423,-0.0697 -0.66155,-0.009 -1.32317,-0.0143 -1.98473,-0.001 -0.67641,0.0151 -1.35266,0.0353 -2.02842,0.0695 -0.68365,0.0345 -1.36679,0.0782 -2.04998,0.12063 -0.6774,0.0432 -1.35471,0.0876 -2.03179,0.1355 -0.66992,0.0475 -1.33973,0.0965 -2.00936,0.14804 -0.67388,0.0511 -1.34799,0.0986 -2.02284,0.13516 -0.68926,0.0378 -1.37894,0.0675 -2.06824,0.10457 -0.68413,0.0358 -1.36819,0.0728 -2.05217,0.11129 -0.68574,0.0378 -1.37164,0.0718 -2.05807,0.0946 -0.6981,0.0232 -1.39651,0.0401 -2.09498,0.0461 -0.70979,0.006 -1.41954,0.007 -2.12933,-5.3e-4 -0.70953,-0.004 -1.41905,-0.009 -2.12858,-0.0136 -0.7049,-0.005 -1.40979,-0.01 -2.11468,-0.0149 -0.6998,-0.005 -1.3996,-0.0106 -2.0994,-0.0164 -0.69421,-0.006 -1.38842,-0.0117 -2.08263,-0.018 -0.68897,-0.006 -1.37794,-0.0133 -2.06694,-0.0163 -0.69276,2e-5 -1.38548,0.009 -2.07822,0.0134 -0.68761,0.006 -1.37522,0.0114 -2.06283,0.0176 -0.6808,0.006 -1.36159,0.0125 -2.04238,0.0193 -0.67344,0.007 -1.34687,0.0138 -2.02031,0.0208 -0.67131,0.007 -1.34264,0.0128 -2.01397,0.004 -0.66919,-0.004 -1.33838,-0.009 -2.00756,-0.0139 -0.66067,-0.005 -1.32135,-0.01 -1.98202,-0.0158 -0.65738,-0.006 -1.31479,-0.0134 -1.97186,-0.036 -0.65385,-0.0185 -1.30769,-0.0376 -1.96148,-0.0585 -0.64829,-0.021 -1.29675,-0.0406 -1.94434,-0.0781 -0.65413,-0.0371 -1.30781,-0.0802 -1.96075,-0.13453 -0.64793,-0.0512 -1.29574,-0.10383 -1.94319,-0.16081 -0.63718,-0.0562 -1.27421,-0.11414 -1.91079,-0.17686 -0.62537,-0.0618 -1.25056,-0.12548 -1.87517,-0.19454 -0.61239,-0.0679 -1.22456,-0.13793 -1.83601,-0.21395 -0.59852,-0.0746 -1.19669,-0.15197 -1.79432,-0.2335 -0.59119,-0.0792 -1.18338,-0.15028 -1.77474,-0.22816 -0.57863,-0.0772 -1.15694,-0.15683 -1.7342,-0.24373 -0.5614,-0.0848 -1.12232,-0.17272 -1.68234,-0.26623 -0.5502,-0.0904 -1.10159,-0.17315 -1.65174,-0.26388 -0.53684,-0.0894 -1.07275,-0.18421 -1.61017,-0.26997 -0.52446,-0.086 -1.0485,-0.17478 -1.57089,-0.27263 -0.50154,-0.0944 -1.00251,-0.19202 -1.50135,-0.29984 -0.47572,-0.1032 -0.95028,-0.21145 -1.4242,-0.32264 -0.44852,-0.10156 -0.89625,-0.2069 -1.34083,-0.32464 -0.41833,-0.11142 -0.83555,-0.22715 -1.24849,-0.3573 -0.38531,-0.12222 -0.76914,-0.24938 -1.14699,-0.39333 -0.34933,-0.13408 -0.69665,-0.27384 -1.03542,-0.43313 -0.31031,-0.14719 -0.61781,-0.30091 -0.91287,-0.47716 -0.26823,-0.16187 -0.53231,-0.33131 -0.77838,-0.52582 -0.22357,-0.17883 -0.43905,-0.3673 -0.63785,-0.57368 -0.19103,-0.19018 -0.38262,-0.38101 -0.54036,-0.60075 -0.14663,-0.20381 -0.28618,-0.41332 -0.41259,-0.63029 -0.11404,-0.21131 -0.22247,-0.42602 -0.30303,-0.65272 -0.0788,-0.23021 -0.14915,-0.46494 -0.18076,-0.70686 -0.029,-0.23454 -0.0625,-0.46872 -0.0823,-0.70425 -0.0193,-0.21701 -0.0406,-0.43385 -0.059,-0.65095 -0.009,-0.18673 -0.0193,-0.37341 -0.0317,-0.55997 -0.0106,-0.16029 -0.0259,-0.32066 -0.0249,-0.48141 0,0 1.00928,-0.51426 1.00928,-0.51426 z"
       inkscape:connector-curvature="0"
       inkscape:export-xdpi="52.709999"
       inkscape:export-ydpi="52.709999" />
    <text
       xml:space="preserve"
       style="font-style:normal;font-weight:normal;font-size:25.39999962px;line-height:1.25;font-family:sans-serif;letter-spacing:0px;word-spacing:0px;fill:#000000;fill-opacity:1;stroke:none;stroke-width:0.26458332"
       x="-193.91045"
       y="153.32062"
       id="text870-6-3-2-1"
       inkscape:export-xdpi="52.709999"
       inkscape:export-ydpi="52.709999"><tspan
         sodipodi:role="line"
         id="tspan868-7-5-9-2"
         x="-193.91045"
         y="153.32062"
         style="font-size:11.28888893px;stroke-width:0.26458332">100%</tspan></text>
    <path
       style="opacity:1;fill:#c8b7b7;fill-opacity:1;stroke:none;stroke-width:0.30000001;stroke-linejoin:round;stroke-miterlimit:4;stroke-dasharray:none;stroke-dashoffset:0;stroke-opacity:1"
       id="path1001"
       d="m -281.4656,-4.785588 c 1.6e-4,0.1729645 8e-5,0.3459289 3e-5,0.5188931 -5e-5,0.2161331 -1.1e-4,0.4322662 -1.3e-4,0.6483991 -6e-5,0.2649558 -1.1e-4,0.5299114 -1.4e-4,0.7948673 0.003,0.3060484 -0.003,0.6119089 -0.0116,0.9177881 -0.0114,0.3391617 -0.0225,0.6783403 -0.0326,1.01754134 -0.0167,0.36470955 -0.0353,0.72941006 -0.0608,1.09362022 -0.0301,0.37864639 -0.061,0.7572268 -0.0902,1.13593934 -0.0311,0.4005194 -0.0586,0.8013069 -0.0853,1.2021376 -0.0325,0.4136143 -0.0706,0.826763 -0.10557,1.2401726 -0.0376,0.4283189 -0.067,0.8573088 -0.10469,1.2856049 -0.0404,0.433396 -0.082,0.8666379 -0.13068,1.2991833 -0.0505,0.4442224 -0.10007,0.8885589 -0.14785,1.3330832 -0.0478,0.4436089 -0.0925,0.8875355 -0.13599,1.3315762 -0.0386,0.4393507 -0.0895,0.8774192 -0.14068,1.3154467 0,0 -1.01389,0.501828 -1.01389,0.501828 v 0 c 0.0512,-0.437419 0.10348,-0.8747707 0.14169,-1.3135768 0.0434,-0.4443452 0.0878,-0.8886021 0.13552,-1.332512 0.0475,-0.4447289 0.0971,-0.8892384 0.14753,-1.333645 0.049,-0.4317788 0.0915,-0.8641585 0.13176,-1.2968441 0.0393,-0.4279725 0.0672,-0.8569058 0.10496,-1.2850214 0.0347,-0.4128535 0.072,-0.8254736 0.10639,-1.2383503 0.0267,-0.4011536 0.0537,-0.8022866 0.0847,-1.2031369 0.0291,-0.3785462 0.0593,-0.7570084 0.0903,-1.13540445 0.0272,-0.36269202 0.0439,-0.72610843 0.0628,-1.0893068 0.0101,-0.33923414 0.0206,-0.67844915 0.0323,-1.01763615 0.01,-0.3047786 0.0172,-0.6095025 0.013,-0.91448 -3e-5,-0.2649124 -8e-5,-0.5298247 -1.3e-4,-0.7947371 -3e-5,-0.2160863 -8e-5,-0.4321726 -1.4e-4,-0.6482591 -2e-5,-0.1729703 -10e-5,-0.3459408 3e-5,-0.5189114 0,0 1.00928,-0.5142595 1.00928,-0.5142595 z"
       inkscape:connector-curvature="0"
       inkscape:export-xdpi="52.709999"
       inkscape:export-ydpi="52.709999" />
    <path
       style="opacity:1;fill:#c8b7b7;fill-opacity:1;stroke:none;stroke-width:0.30000001;stroke-linejoin:round;stroke-miterlimit:4;stroke-dasharray:none;stroke-dashoffset:0;stroke-opacity:1"
       id="path1003"
       d="m -285.59561,8.0434131 c 0.0618,0.1582074 0.13107,0.3132402 0.2001,0.468399 0.0856,0.184091 0.17666,0.3654957 0.26879,0.5463773 0.10814,0.2094622 0.22702,0.4129151 0.35367,0.6116627 0.14166,0.2123006 0.2944,0.4168009 0.44236,0.6246909 0.14816,0.207384 0.29832,0.413376 0.45185,0.616824 0.13272,0.17737 0.28573,0.337758 0.44223,0.49399 0.13292,0.134712 0.28244,0.249228 0.4368,0.357791 0.14068,0.09894 0.29318,0.175798 0.4522,0.239963 0.15912,0.05741 0.32496,0.09439 0.49199,0.119557 0.1678,0.01946 0.3357,0.0092 0.50096,-0.02307 0.17172,-0.03879 0.33618,-0.09984 0.49885,-0.165978 1.01491,-0.550565 -0.98079,0.620866 -0.3587,0.197639 0.18881,-0.127855 0.36563,-0.272111 0.54049,-0.418137 0.17071,-0.141007 0.32539,-0.299444 0.47369,-0.463409 0.12771,-0.142835 0.24577,-0.293766 0.36115,-0.446609 0,0 1.03982,-0.448781 1.03982,-0.448781 v 0 c -0.11367,0.156156 -0.23159,0.309154 -0.35711,0.456022 -0.1474,0.167541 -0.29814,0.332398 -0.46744,0.478435 -0.17492,0.147834 -0.35005,0.295924 -0.53676,0.428883 -0.50385,0.344142 -1.02582,0.672319 -1.58615,0.91557 -0.16688,0.06292 -0.33729,0.118367 -0.51393,0.146365 -0.1738,0.02066 -0.34949,0.02372 -0.52255,-0.0067 -0.17235,-0.03308 -0.34414,-0.07291 -0.5066,-0.140872 -0.16364,-0.07149 -0.3203,-0.156594 -0.46569,-0.260846 -0.15828,-0.11344 -0.31004,-0.234994 -0.44686,-0.374101 -0.15946,-0.160506 -0.31464,-0.325836 -0.45011,-0.507518 -0.15396,-0.204405 -0.30464,-0.411275 -0.45336,-0.619524 -0.14915,-0.209433 -0.30308,-0.415485 -0.44537,-0.62971 -0.12843,-0.201896 -0.24929,-0.4083749 -0.35923,-0.6209745 -0.0931,-0.1826265 -0.18518,-0.3657217 -0.27196,-0.5514515 -0.0695,-0.1562878 -0.13999,-0.3121221 -0.20177,-0.4716819 0,0 0.98864,-0.5527868 0.98864,-0.5527868 z"
       inkscape:connector-curvature="0"
       inkscape:export-xdpi="52.709999"
       inkscape:export-ydpi="52.709999" />
    <text
       xml:space="preserve"
       style="font-style:normal;font-weight:normal;font-size:16.61233902px;line-height:1.25;font-family:sans-serif;letter-spacing:0px;word-spacing:0px;fill:#000000;fill-opacity:1;stroke:none;stroke-width:0.1730452"
       x="-286.46463"
       y="-6.5068607"
       id="text870-6-3-7"
       inkscape:export-xdpi="52.709999"
       inkscape:export-ydpi="52.709999"><tspan
         sodipodi:role="line"
         id="tspan868-7-5-0"
         x="-286.46463"
         y="-6.5068607"
         style="font-size:7.38326216px;stroke-width:0.1730452">1 image</tspan></text>
  </g>
</svg>
