<svg width="168" height="30" viewBox="0 0 168 30" fill="none" xmlns="http://www.w3.org/2000/svg">
<path fill-rule="evenodd" clip-rule="evenodd" d="M0 29.4456V0H11.9834C13.5678 0 14.9992 0.287459 16.2774 0.862427C17.5689 1.4374 18.6674 2.2108 19.5728 3.18274C20.4915 4.15467 21.1972 5.28407 21.6899 6.57084C22.1825 7.85765 22.4288 9.21972 22.4288 10.6571C22.4288 12.0807 22.1825 13.436 21.6899 14.7228C21.1972 16.0096 20.4915 17.1389 19.5728 18.1109C18.6674 19.0828 17.5689 19.8562 16.2774 20.4312C14.9992 21.0061 13.5678 21.2936 11.9834 21.2936H6.63079V29.4456H0ZM6.63079 15.7289H11.1645C11.8436 15.7289 12.4693 15.5921 13.0419 15.3183C13.6277 15.0308 14.1137 14.6612 14.4999 14.2095C14.8993 13.744 15.2055 13.2033 15.4186 12.5873C15.6449 11.9712 15.7581 11.3278 15.7581 10.6571C15.7581 9.98629 15.6449 9.34294 15.4186 8.7269C15.2055 8.0972 14.8993 7.55648 14.4999 7.10473C14.1137 6.63927 13.6344 6.26967 13.0619 5.99592C12.4893 5.70841 11.8569 5.5647 11.1645 5.5647H6.63079V15.7289ZM22.9098 19.3019C22.9098 17.8508 23.1561 16.4819 23.6488 15.195C24.1547 13.9083 24.8804 12.7789 25.8257 11.807C26.7711 10.8351 27.9162 10.0616 29.261 9.48665C30.6058 8.91173 32.137 8.62422 33.8546 8.62422C35.5722 8.62422 37.1034 8.91173 38.4482 9.48665C39.8063 10.0616 40.9514 10.8351 41.8834 11.807C42.8288 12.7789 43.5478 13.9083 44.0404 15.195C44.5331 16.4819 44.7794 17.8508 44.7794 19.3019C44.7794 20.7529 44.5331 22.1287 44.0404 23.4292C43.5478 24.7159 42.8288 25.8453 41.8834 26.8172C40.9514 27.7892 39.8063 28.5626 38.4482 29.1376C37.1034 29.7125 35.5722 30 33.8546 30C32.137 30 30.6058 29.7125 29.261 29.1376C27.9162 28.5626 26.7711 27.7892 25.8257 26.8172C24.8804 25.8453 24.1547 24.7159 23.6488 23.4292C23.1561 22.1424 22.9098 20.7666 22.9098 19.3019ZM29.1611 19.3019C29.1611 20.0274 29.2676 20.705 29.4807 21.3347C29.707 21.9507 30.0199 22.4983 30.4194 22.9774C30.8321 23.4428 31.3248 23.8124 31.8973 24.0862C32.4698 24.3463 33.109 24.4764 33.8146 24.4764C34.5203 24.4764 35.1661 24.3463 35.7519 24.0862C36.3511 23.8124 36.8504 23.4428 37.2499 22.9774C37.6626 22.4983 37.9822 21.9507 38.2085 21.3347C38.4482 20.7187 38.568 20.0411 38.568 19.3019C38.568 18.6037 38.4482 17.9398 38.2085 17.31C37.9822 16.6803 37.6626 16.1328 37.2499 15.6673C36.8504 15.2019 36.3578 14.8323 35.7719 14.5585C35.1861 14.2847 34.5336 14.1478 33.8146 14.1478C33.109 14.1478 32.4698 14.2847 31.8973 14.5585C31.3248 14.8323 30.8321 15.2019 30.4194 15.6673C30.0199 16.1328 29.707 16.6803 29.4807 17.31C29.2676 17.9398 29.1611 18.6037 29.1611 19.3019ZM47.0978 29.4456V9.17865H53.3491V11.7249C53.8151 10.7666 55.5508 9.17865 59.4606 9.17865H62.4342V3.1622H68.6655V9.17865H73.1593V14.5585H68.6655V21.2115C68.6655 21.9644 68.7321 22.5667 68.8653 23.0185C68.9984 23.4565 69.1848 23.8056 69.4245 24.0657C69.6775 24.3121 69.9771 24.4764 70.3232 24.5585C70.6827 24.627 71.0822 24.6612 71.5216 24.6612C71.7879 24.6612 72.1274 24.6543 72.5402 24.6407C72.9529 24.6133 73.3124 24.5722 73.6187 24.5175V29.4456C73.1527 29.5277 72.5668 29.603 71.8611 29.6715C71.1687 29.7399 70.3499 29.7741 69.4045 29.7741C68.6722 29.7741 67.8999 29.7194 67.0877 29.6099C66.2755 29.5004 65.5232 29.2128 64.8309 28.7474C64.1385 28.282 63.566 27.5701 63.1133 26.6119C62.6605 25.64 62.4342 24.3121 62.4342 22.6284V14.5585H59.4606C56.7532 14.5585 55.5548 15.4668 54.5283 17.0185C53.3491 18.8008 53.3491 21.1458 53.3491 23.306V29.4456H47.0978ZM75.302 15.0719C74.836 16.3723 74.603 17.7823 74.603 19.3019C74.603 20.8214 74.836 22.2313 75.302 23.5318C75.7814 24.8323 76.4405 25.9548 77.2793 26.8994C78.1314 27.8439 79.1234 28.59 80.2552 29.1376C81.4002 29.6851 82.6252 29.9589 83.9301 29.9589C85.4479 29.9589 86.7528 29.6304 87.8446 28.9733C88.9364 28.3162 89.7287 27.5222 90.2213 26.5914V29.4456H96.4726V9.17865H90.2213V12.0739C89.6754 11.0883 88.8565 10.2738 87.7647 9.6304C86.6862 8.987 85.408 8.66529 83.9301 8.66529C82.6119 8.66529 81.3869 8.93909 80.2552 9.48665C79.1234 10.0343 78.1314 10.7803 77.2793 11.7249C76.4405 12.6557 75.7814 13.7714 75.302 15.0719ZM81.1539 21.3142C80.9276 20.6708 80.8144 20 80.8144 19.3019C80.8144 18.6037 80.9276 17.9466 81.1539 17.3306C81.3936 16.7146 81.7131 16.167 82.1126 15.6879C82.5253 15.2087 83.018 14.8323 83.5905 14.5585C84.1631 14.2847 84.8022 14.1478 85.5079 14.1478C86.2269 14.1478 86.8726 14.2847 87.4452 14.5585C88.0177 14.8323 88.5037 15.2087 88.9031 15.6879C89.3159 16.167 89.6355 16.7146 89.8618 17.3306C90.1015 17.9466 90.2213 18.6037 90.2213 19.3019C90.2213 20.0137 90.1015 20.6845 89.8618 21.3142C89.6355 21.9439 89.3159 22.4914 88.9031 22.9569C88.5037 23.4086 88.011 23.7782 87.4252 24.0657C86.8527 24.3395 86.2135 24.4764 85.5079 24.4764C84.8022 24.4764 84.1631 24.3395 83.5905 24.0657C83.018 23.7782 82.5253 23.4086 82.1126 22.9569C81.7131 22.4914 81.3936 21.9439 81.1539 21.3142ZM100.149 0V29.4456H106.4V26.5914C106.866 27.4538 107.639 28.2341 108.717 28.9322C109.796 29.6167 111.127 29.9589 112.712 29.9589C114.043 29.9589 115.275 29.6851 116.407 29.1376C117.538 28.59 118.524 27.8439 119.362 26.8994C120.215 25.9548 120.88 24.8323 121.36 23.5318C121.839 22.2313 122.079 20.8214 122.079 19.3019C122.079 17.796 121.839 16.3929 121.36 15.0924C120.88 13.7782 120.215 12.6489 119.362 11.7043C118.524 10.746 117.538 10 116.407 9.46611C115.275 8.93227 114.056 8.66529 112.752 8.66529C111.194 8.66529 109.869 9.0007 108.777 9.67148C107.685 10.3422 106.893 11.1431 106.4 12.0739V0H100.149ZM106.74 21.3347C106.514 20.705 106.4 20.0274 106.4 19.3019C106.4 18.6037 106.514 17.9466 106.74 17.3306C106.98 16.7146 107.306 16.167 107.719 15.6879C108.131 15.2087 108.624 14.8323 109.197 14.5585C109.769 14.2847 110.408 14.1478 111.114 14.1478C111.82 14.1478 112.465 14.2847 113.051 14.5585C113.637 14.8323 114.136 15.2087 114.549 15.6879C114.962 16.167 115.275 16.7214 115.488 17.3511C115.714 17.9808 115.827 18.6311 115.827 19.3019C115.827 20.0137 115.708 20.6845 115.468 21.3142C115.242 21.9439 114.922 22.4914 114.509 22.9569C114.096 23.4086 113.604 23.7782 113.031 24.0657C112.459 24.3395 111.82 24.4764 111.114 24.4764C110.408 24.4764 109.769 24.3463 109.197 24.0862C108.624 23.8124 108.131 23.4428 107.719 22.9774C107.306 22.4983 106.98 21.9507 106.74 21.3347ZM124.557 0V29.4456H130.808V0H124.557ZM139.544 20.8106C139.571 21.4276 139.653 22.0166 139.79 22.5776C139.955 23.1105 140.201 23.5873 140.529 24.008C140.885 24.4006 141.337 24.7232 141.885 24.9756C142.432 25.2 143.117 25.3122 143.938 25.3122C145.033 25.3122 145.855 25.0878 146.402 24.639C146.977 24.1903 147.374 23.6434 147.593 22.9983H149.183L150.707 20.8106H139.544ZM153.866 16.278C153.746 15.5967 153.544 14.9339 153.261 14.2896C152.795 13.1677 152.111 12.186 151.207 11.3446C150.331 10.5032 149.263 9.83006 148.004 9.32521C146.772 8.82036 145.376 8.56793 143.815 8.56793C142.09 8.56793 140.571 8.84841 139.256 9.40935C137.97 9.9703 136.874 10.7416 135.971 11.7232C135.095 12.6769 134.424 13.7987 133.958 15.0889C133.52 16.3791 133.301 17.7674 133.301 19.254C133.301 20.8246 133.534 22.269 134 23.5873C134.465 24.8774 135.149 25.9993 136.053 26.9529C136.957 27.9065 138.065 28.6498 139.38 29.1827C140.721 29.6876 142.254 29.94 143.979 29.94C145.313 29.94 146.515 29.78 147.584 29.4599L148.181 28.5531L168 0H165.21L153.866 16.278ZM143.774 12.8592C142.542 12.8592 141.529 13.2238 140.735 13.953C139.941 14.6822 139.544 15.734 139.544 17.1083H147.84C147.84 15.7901 147.456 14.7524 146.69 13.9951C145.951 13.2378 144.979 12.8592 143.774 12.8592Z" fill="black"/>
</svg>
